<svg xmlns="http://www.w3.org/2000/svg" width="256" height="256"><path fill-opacity=".016" d="M0 128.004v128.004l128.25-.254 128.25-.254.254-127.75L257.008 0H0v128.004m.485.496c0 70.4.119 99.053.265 63.672.146-35.38.146-92.98 0-128C.604 29.153.485 58.1.485 128.5" fill="#111" fill-rule="evenodd"/><path fill-opacity=".338" d="M121.1 1.721c-1.871.921-4.279 3.164-5.353 4.983-1.074 1.82-2.919 3.513-4.1 3.762a1154.14 1154.14 0 01-9.809 1.953c-28.369 5.554-55.543 23.173-74.077 48.029-18.131 24.316-26.52 56.651-22.72 87.578 1.163 9.466 4.317 22.206 7.151 28.88 1.85 4.357 1.847 4.461-.257 9.537-1.829 4.412-1.971 5.709-1.017 9.253 1.324 4.918 6.58 9.932 11.347 10.826 1.819.341 3.741.479 4.271.307.53-.172 6.139 4.91 12.464 11.294s14.875 13.856 19 16.604c42.542 28.34 95.761 28.553 137.883.552 8.903-5.918 22.453-18.207 27.496-24.937 2.549-3.401 3.388-3.853 7.307-3.939 10.439-.229 17.203-11.599 12.394-20.832l-2.047-3.929 2.916-8.571c15.041-44.205 4.784-91.277-27.177-124.73-4.549-4.762-11.811-11.296-16.137-14.52-14.408-10.74-37.932-20.663-53.254-22.464-4.711-.554-5.578-1.025-7.323-3.983-3.994-6.769-11.905-9.128-18.958-5.653m-16.6 18.93C35.783 35.263-4.27 107.404 20.129 172.616c1.751 4.678 2.367 5.384 4.704 5.384 2.51 0 5.657-5.135 47.318-77.203 42.828-74.085 44.569-77.295 43.124-79.5-1.726-2.634-1.491-2.62-10.775-.646m35.554 1.219c-1.163 2.808.383 5.663 43.059 79.521C224.747 173.445 227.542 178 230.118 178c2.416 0 2.99-.673 4.877-5.716 3.889-10.395 6.068-21.589 6.684-34.342 2.816-58.329-38.237-108.533-96.799-118.375-3.301-.555-3.726-.352-4.826 2.303m-37.19 43.432c-21.738 37.597-23.151 40.176-20.789 37.948.729-.687 2.044-1.25 2.922-1.25.878 0 3.376-1.858 5.55-4.128 5.759-6.015 14.886-11.642 22.758-14.033 5.702-1.732 8.68-2.013 17.29-1.63 9.721.432 10.943.731 18.654 4.559 5.265 2.615 10.241 6.065 13.751 9.534 3.025 2.99 6.709 5.722 8.187 6.071 2.503.59 1.942-.658-8.144-18.12-5.957-10.314-15.506-26.848-21.218-36.741-10.012-17.338-10.517-18.009-13.992-18.574l-3.605-.586-21.364 36.95M114.5 87.404c-7.223 2.294-14.21 6.443-19.459 11.556-2.841 2.767-4.885 5.483-4.544 6.035.898 1.453 73.16 1.369 74.059-.085.873-1.414-5.734-8.167-11.808-12.068-7.261-4.665-15.525-6.853-25.587-6.775-4.764.037-10.461.638-12.661 1.337m-56.905 56.334l-21.738 37.738 1.555 3.262L38.968 188h89.016c67.354 0 89.016-.285 89.016-1.171 0-.644.638-1.882 1.418-2.75 1.249-1.391-1.177-6.072-20.336-39.246-20.159-34.905-21.826-37.471-22.727-35-.706 1.937-.57 3.625.496 6.167.856 2.041 1.654 8.086 1.915 14.5.382 9.409.133 11.924-1.717 17.387-3.933 11.616-11.342 21.127-21.539 27.65-5.226 3.343-15.846 7.463-19.238 7.463-.985 0-2.353.9-3.04 2-1.632 2.613-7.576 2.744-9.425.208-.719-.986-4.161-2.575-7.649-3.53-3.488-.956-8.66-2.912-11.494-4.348-6.394-3.24-17.293-14.144-20.894-20.905-5.666-10.634-7.349-25.371-4.159-36.425.873-3.025 1.534-6.287 1.47-7.25-.19-2.843-.574-6.75-.665-6.75-.046 0-9.866 16.982-21.821 37.738m32.928-32.775c-.522.845 16.035 31.037 17.02 31.037.21 0 .111-2.904-.221-6.454-1.015-10.873 2.624-16.973 13.165-22.065l7.013-3.389-18.191-.046c-10.642-.027-18.438.354-18.786.917m42.977 1.987c3.3 1.541 7.214 4.095 8.697 5.676 5.053 5.385 7.134 13.743 4.891 19.642-.502 1.32-.594 2.913-.206 3.541.905 1.465 18.395-28.644 17.697-30.465-.408-1.061-4.359-1.328-18.798-1.27l-18.281.074 6 2.802m-50.382 4.8c-1.911 5.883-2.499 18.111-1.178 24.469 2.873 13.822 12.285 25.829 25.245 32.208 7.063 3.476 15.315 5.132 15.315 3.073 0-1.898-35.946-63.5-37.054-63.5-.611 0-1.659 1.688-2.328 3.75m36.912-2.167c-7.031 3.05-11.04 9.284-11.015 17.127.029 8.858 1.229 8.177 8.83-5.009 3.935-6.827 7.155-12.703 7.155-13.057 0-.948-1.098-.74-4.97.939m10.379.04c.391 1.019 3.692 6.988 7.336 13.263 6.993 12.042 8.023 12.524 8.185 3.832.162-8.727-4.956-15.464-13.831-18.207-2.059-.636-2.3-.477-1.69 1.112m36.307 2.112c-16.814 28.339-34.352 59.95-33.663 60.674 1.457 1.531 13.596-2.382 19.726-6.358 13.725-8.905 21.532-23.244 21.532-39.551 0-7.319-2.643-18.5-4.373-18.5-.553 0-2.003 1.681-3.222 3.735M120 127.606c-3.575 6.356-6.65 11.97-6.833 12.475-.193.532 5.815.919 14.25.919 8.021 0 14.564-.338 14.541-.75-.08-1.436-13.509-23.6-14.48-23.899-.538-.166-3.903 4.899-7.478 11.255m-7 16.343c0 .522 1.619 2.184 3.598 3.693 4.67 3.563 13.389 4.433 18.492 1.846 3.936-1.996 6.91-4.425 6.91-5.643 0-.465-6.525-.845-14.5-.845-8.482 0-14.5.394-14.5.949m32.19.733c-.72.289-2.52 1.663-4 3.054-7.647 7.19-19.31 7.103-27.982-.209-1.811-1.527-3.45-2.607-3.643-2.401-.193.206 3.401 6.899 7.988 14.874 5.687 9.889 8.89 14.5 10.073 14.5 1.154 0 3.868-3.679 8.114-11 3.509-6.05 7.497-12.912 8.862-15.25 1.365-2.338 2.351-4.214 2.19-4.171-.161.043-.881.315-1.602.603M37.191 199.479c-1.026 2.252-.637 3.06 4.23 8.797C49.755 218.1 63.433 228.675 76 235.012c26.468 13.345 59.517 15.758 87.545 6.391 16.824-5.623 31.418-14.543 44.017-26.903 10.414-10.217 12.009-12.613 10.258-15.417L216.519 197H38.321l-1.13 2.479" fill="#111" fill-rule="evenodd"/><path fill-opacity=".187" d="M123.643 1.028c-3.448 1.033-6.379 3.561-8.191 7.064-1.135 2.195-2.405 2.772-8.213 3.731C56.277 20.24 15.6 60.39 6.273 111.484c-3.589 19.664-1.413 44.113 5.648 63.462 2.57 7.042 2.706 7.999 1.331 9.374-2.334 2.333-2.803 10.714-.815 14.559 2.176 4.207 7.085 7.109 12.063 7.131 3.703.015 4.395.499 9.325 6.521 18.881 23.063 49.133 38.947 81.123 42.593 38.746 4.417 81.264-12.659 106.011-42.574 4.737-5.727 5.846-6.55 8.828-6.55 4.748 0 10.09-2.769 12.387-6.42 2.348-3.732 2.083-12.533-.461-15.344-1.506-1.665-1.44-2.304.907-8.766 3.476-9.567 6.006-21.003 7.407-33.47 2.37-21.104-4.165-49.63-16.04-70.008C215.7 40.61 185.5 19.143 150.09 12.355c-8.254-1.583-8.929-1.901-10.601-5.005-1.065-1.978-3.466-4.129-5.953-5.332-4.513-2.185-5.556-2.29-9.893-.99M99.442 21.44C51.498 33.837 17.266 74.227 13.117 123.294c-1.342 15.861.974 33.855 6.205 48.206 2.074 5.691 2.357 6 5.51 6h3.323l44.437-76.671c41.518-71.634 44.36-76.841 43.262-79.25-1.49-3.27-4.212-3.293-16.412-.139m40.112.118c-1.672 2.552-1.564 2.753 42.659 79.25l44.336 76.692 3.576.301 3.576.302 2.568-7.802c11.439-34.757 7.045-70.741-12.205-99.959-16.514-25.066-40.1-41.81-69.474-49.32-10.574-2.703-12.97-2.618-15.036.536m-16.891 8.635c-.801 1.269-20.828 35.951-44.505 77.072L35.11 182.03l1.695 2.979 1.695 2.978 89.224.007 89.225.006 1.549-2.996 1.55-2.997-26.701-46.253c-14.685-25.44-34.621-59.979-44.301-76.754l-17.602-30.5-3.662-.307c-2.928-.245-3.953.155-5.119 2m-7.029 53.393c-8.28 2.005-17.199 7.036-23.334 13.164-2.891 2.888-5.841 5.25-6.556 5.25-.714 0-2.352.737-3.638 1.639-2.033 1.424-2.262 2.203-1.749 5.948.367 2.676.04 5.871-.862 8.427-2.203 6.244-2.832 15.736-1.524 22.986 3.51 19.46 18.359 35.465 37.537 40.46 3.214.837 6.807 2.426 7.983 3.531 1.176 1.105 2.98 2.009 4.009 2.009 1.029 0 2.833-.904 4.009-2.009 1.176-1.105 4.805-2.694 8.065-3.532 16.618-4.27 29.1-15.518 35.465-31.959 1.931-4.99 2.319-7.852 2.305-17-.012-7.648-.507-12.284-1.624-15.214-.978-2.567-1.382-5.593-1.033-7.742.635-3.919-.86-6.544-3.729-6.544-.989 0-4.508-2.71-7.82-6.022-12.453-12.453-30.436-17.523-47.504-13.392m.478 2.995c-2.963.796-7.954 2.817-11.091 4.489-6.582 3.508-15.936 12.441-14.477 13.826.526.499 17.372 1.064 37.436 1.256 34.919.333 36.495.268 36.844-1.512.464-2.366-7.696-10.164-14.528-13.883-9.871-5.372-23.532-7.041-34.184-4.176M108.5 110c-15.562.432-18 .715-18 2.087 0 2.931 35.783 64.006 37.321 63.699.789-.157 9.649-14.461 19.687-31.786 14.379-24.815 18.055-31.878 17.321-33.28-1.001-1.914-9.467-2.022-56.329-.72m17.07 1.887c-.301.487-2.168 1.19-4.147 1.561-2.327.437-5.092 2.168-7.82 4.897-5.113 5.113-7.211 11.353-5.988 17.811.452 2.389.841 4.904.864 5.588.071 2.118 9.487 9.17 13.792 10.329 6.518 1.755 11.907.396 18.712-4.719 3.314-2.492 5.787-4.918 5.494-5.391-.292-.473-.033-2.839.576-5.258 2.145-8.518-2.302-17.609-10.574-21.618-2.738-1.327-5.76-2.789-6.715-3.25-2.231-1.075-3.508-1.06-4.194.05m-43.134 7.306c-2.471 7.438-2.245 20.463.488 28.226 4.346 12.342 13.367 22.435 24.906 27.866 7.303 3.436 15.173 4.783 15.165 2.595-.009-2.42-35.677-63.367-37.27-63.684-1.06-.212-2.067 1.318-3.289 4.997m37.064-4.029c-3.288 1.814-7.576 6.139-9.232 9.313-1.76 3.372-2.094 13.097-.504 14.687 1.169 1.169 1.226 1.092 8.949-12.164 7.991-13.716 7.713-13.005 5.072-12.97-1.257.017-3.185.527-4.285 1.134m10.6 1.086c1.346 2.586 13.08 23.031 13.593 23.683.187.239.847-.073 1.467-.693 1.524-1.524 1.429-11.249-.139-14.289-2.951-5.717-9.645-10.951-14.007-10.951-1.842 0-1.948.262-.914 2.25m20.036 29.342c-9.977 17.375-17.855 32.053-17.507 32.617 1.065 1.723 9.18.01 16.106-3.399 12.371-6.091 22.535-19.171 25.325-32.591 2.16-10.391-.423-28.219-4.089-28.219-1.173 0-7.272 9.715-19.835 31.592m-23.773-29.434c-4.253 6.563-14.039 24.502-13.69 25.092.245.412 6.917.75 14.827.75s14.59-.338 14.845-.75c.418-.677-12.397-23.575-14.319-25.587-.44-.461-1.189-.238-1.663.495m-13.714 28.369c.748 1.951 7.9 6.079 12.017 6.936 4.66.97 10.993-1.117 15.164-4.996l3.67-3.413-15.719-.027c-13.689-.024-15.643.17-15.132 1.5m-75.034 53.938c-.888 1.355-1.615 2.893-1.615 3.417s3.427 4.595 7.616 9.048c35.893 38.155 91.482 47.618 137.478 23.404 11.65-6.133 20.014-12.585 30.227-23.317l8.584-9.02-1.702-2.992-1.703-2.992-88.635-.007L39.23 196l-1.615 2.465" fill="#111" fill-rule="evenodd"/><path fill-opacity=".348" d="M51.872 36.692c-1.168 1.441-1.164 1.566.033.845.96-.578 1.175-.476.68.325-.398.644-1.162.9-1.698.568-1.332-.823-4.021 1.545-3.221 2.838.353.572.178.754-.389.403-1.381-.853-15.815 14.285-21.245 22.282-21.5 31.66-26.907 71.679-14.648 108.405l3.29 9.858-1.837 3.603c-1.01 1.982-1.835 4.971-1.833 6.642.008 6.629 7.158 13.528 14.027 13.535 3.116.004 4.254.826 9.687 7 41.739 47.432 110.548 56.245 162.032 20.752 6.922-4.771 10.267-7.908 4.5-4.219l-2.75 1.759 2.5-2.805c1.375-1.543 1.861-2.434 1.08-1.98-1.042.605-1.258.404-.813-.756.707-1.842-1.858-3.217-2.889-1.549-.452.731-.206.832.717.296.819-.475 1.062-.44.584.083-.451.494-1.576.903-2.5.91-.923.007-1.555.609-1.404 1.337.151.729-.183 1.042-.742.697-.559-.346-3.079.791-5.601 2.526-6.682 4.597-19.682 10.455-29.549 13.314-43.413 12.58-89.749-1.142-119.376-35.353l-5.33-6.155 1.662-2.92 1.661-2.92 70.5-.164c38.775-.09 68.25-.453 65.5-.808-4.745-.611-4.822-.667-1.5-1.092 4.533-.581 4.126-2.292-.717-3.011-3.768-.56-3.771-.564-.783-1.1 1.65-.296-27.443-.606-64.651-.688L39.198 189l-2.13-3.609-2.129-3.608 26.102-45.372c15.105-26.259 25.795-45.867 25.375-46.546-.443-.718-.293-.907.387-.487.649.401 1.803-.648 2.772-2.523 1.435-2.775 1.465-3.355.22-4.283-.792-.589-1.919-1.937-2.503-2.993-.987-1.784-1.182-1.693-2.719 1.279-.91 1.76-1.342 3.707-.959 4.326.402.65.248.849-.364.47-.633-.39-11.844 17.973-27.839 45.596-14.728 25.437-26.809 46.32-26.845 46.405-.036.085-1.637.31-3.557.5-3.467.343-3.506.302-5.829-6.155-5.754-15.987-8.115-35.431-6.22-51.216 3.208-26.728 13.188-48.243 31.207-67.279 4.371-4.618 7.952-8.758 7.956-9.201.004-.442.581-.688 1.281-.547.701.141 2.091-.646 3.09-1.75.999-1.104 1.521-2.063 1.161-2.132a46.027 46.027 0 00-1.905-.295c-.687-.094-1.138-.713-1-1.375.138-.663-.227-1.205-.809-1.205-.582 0-.781-.45-.441-1 1.006-1.628-.142-1.14-1.628.692m36.752 47.847c-.965 2.514-.681 3.163.498 1.136.584-1.004.851-2.036.593-2.293-.257-.258-.749.263-1.091 1.157m3.666 12.866c-3.077 3.077-6.356 5.595-7.287 5.595s-2.52.914-3.53 2.03c-1.466 1.62-1.64 2.58-.859 4.75.727 2.022.517 4.218-.818 8.559-2.264 7.362-2.358 20.383-.201 27.729 5.197 17.691 19.847 31.613 37.068 35.225 3.372.708 5.875 1.844 6.457 2.931 1.373 2.566 7.469 2.412 8.88-.224.589-1.1 2.067-2.009 3.285-2.021 6.38-.061 25.647-9.662 24.173-12.046-.32-.519-2.528.395-4.906 2.032-4.884 3.36-12.228 6.429-17.815 7.446-5.377.978-5.669-1.052-1.282-8.897 2.009-3.592 3.334-7.047 2.944-7.677-.428-.693-.267-.873.408-.456.67.414 2.019-1.022 3.376-3.596 2.302-4.365 3.202-8.141 1.723-7.227-.45.278-.537 1.24-.192 2.138.393 1.026.226 1.385-.451.967-.642-.397-3.635 3.779-7.42 10.357-4.967 8.631-6.763 10.964-8.278 10.751-2.942-.412-39.081-63.444-37.481-65.372.852-1.027 3.803-1.399 11.097-1.399 6.37 0 9.715-.359 9.319-1-.34-.551-4.803-1-9.937-1-12.801 0-13.604-1.089-6.236-8.457 3.036-3.036 5.078-5.793 4.539-6.126-.54-.333-3.499 1.911-6.576 4.988m.656.345L89.5 101.5l3.75-3.446c2.063-1.896 3.75-3.583 3.75-3.75 0-.764-.846-.044-4.054 3.446m-9.297 16.009c-.258.418-1.185 3.52-2.059 6.895-6.375 24.599 8.091 50.002 32.75 57.512 12.215 3.72 12.269 3.921-8.95-32.928-16.695-28.992-20.169-34.022-21.741-31.479M109 142.052c0 1.505.835 1.654 6.75 1.201 8.444-.647 9.37-1.253 1.917-1.253-3.117 0-5.667-.375-5.667-.833 0-.459-.675-.834-1.5-.834s-1.5.774-1.5 1.719m4.5 4.948c.995 1.1 2.035 2 2.31 2 .275 0-.315-.9-1.31-2-.995-1.1-2.035-2-2.31-2-.275 0 .315.9 1.31 2" fill="#111" fill-rule="evenodd"/></svg>