<svg xmlns="http://www.w3.org/2000/svg" width="256" height="256"><path fill-opacity=".016" d="M0 128.004v128.004l128.25-.254 128.25-.254.254-127.75L257.008 0H0v128.004m.485.496c0 70.4.119 99.053.265 63.672.146-35.38.146-92.98 0-128C.604 29.153.485 58.1.485 128.5" fill="#111" fill-rule="evenodd"/><path fill-opacity=".211" d="M122.339 27.935c-1.738 1.06-3.428 2.771-3.756 3.802-.455 1.434-2.298 2.167-7.839 3.115-9.857 1.687-22.885 6.783-32.224 12.603-37.066 23.102-53.404 68.268-39.757 109.908 2.071 6.32 2.347 8.231 1.407 9.737-1.662 2.661-1.448 9.058.391 11.683 1.901 2.714 6.524 5.217 9.639 5.218 1.57 0 4.165 2.086 8.175 6.57 11.903 13.31 30.186 24.152 48.185 28.572 13.096 3.216 31.362 3.028 44.652-.46 17.721-4.65 33.494-14.103 45.973-27.55 5.135-5.534 7.045-6.922 10.221-7.431 7.855-1.26 12.47-9.174 9.123-15.646-1.556-3.01-1.533-3.533.414-9.385 4.899-14.722 6.475-33.299 4.006-47.237-6.686-37.749-36.064-68.058-73.912-76.255-6.367-1.38-8.095-2.218-11.132-5.406-4.192-4.399-8.426-4.973-13.566-1.838M104 43.618C90.399 47.635 78.983 54.21 68.766 63.907c-18.49 17.55-27.788 38.757-27.753 63.301.014 9.497 2.589 24.496 5.276 30.719 3.313 7.674 2.945 8.185 39.464-54.851 26.195-45.216 33.735-58.975 33.056-60.326-1.184-2.357-4.565-2.159-14.809.868m33.544-.757c-.506 1.594 7.364 15.992 33.146 60.639 28.301 49.009 34.136 58.505 35.81 58.275 1.539-.212 2.673-2.233 4.921-8.775 2.526-7.351 2.981-10.364 3.364-22.288.376-11.674.111-15.23-1.729-23.194-6.696-28.973-28.592-53.232-56.519-62.617-4.596-1.544-10.601-3.106-13.343-3.47-4.482-.594-5.053-.45-5.65 1.43M109.5 75.654c-8.8 15.258-16.15 28.103-16.334 28.545-.777 1.87 3.709-.886 8.502-5.224 15.988-14.471 38.964-14.185 53.817.668 9.515 9.515 7.744 4.61-8.536-23.643-14.35-24.904-16.11-27.528-18.647-27.794-2.688-.282-3.454.836-18.802 27.448m11.855 16.344C113.334 93.666 100 102.326 100 105.868c0 1.402 55.578 1.625 56.442.226.974-1.577-9.321-9.905-14.758-11.939-6.435-2.408-14.835-3.299-20.329-2.157m-32.156 18.464c-.642 1.409-7.935 14.243-16.209 28.522-13.447 23.209-14.907 26.175-13.775 27.988 1.23 1.97 2.199 2.028 34.148 2.028 27.946 0 32.709-.208 31.729-1.389-.634-.764-3.224-1.911-5.757-2.548-14.984-3.773-26.766-16.588-29.495-32.081-.825-4.685-.703-7.553.596-13.964 1.739-8.58 1.024-13.519-1.237-8.556m75.53-.534c-.296 1.131.094 4.157.867 6.723 3.136 10.42.567 24.55-6.106 33.593-4.848 6.569-11.733 11.369-19.982 13.928-14.381 4.463-12.611 4.828 23.385 4.828 32.492 0 33.055-.034 34.156-2.091.97-1.812-.387-4.709-10.186-21.75-21.541-37.461-21.548-37.472-22.134-35.231m-64.717 1.322c.007.688 2.947 6.2 6.534 12.25 6.46 10.897 6.515 10.956 5.88 6.288-.506-3.714-.181-5.663 1.537-9.212 2.133-4.406 7.163-8.576 10.346-8.576.865 0 1.851-.45 2.191-1 .4-.648-4.156-1-12.941-1-10.187 0-13.556.311-13.547 1.25M129.5 111c.34.55 1.387 1 2.327 1s3.346 1.113 5.348 2.473c4.813 3.271 7.317 9.623 6.4 16.235l-.665 4.792 5.637-9.5c7.436-12.531 8.492-14.627 7.746-15.373-1.094-1.094-27.473-.727-26.793.373m-35.489 6.459c-.759 2.713-1.088 7.655-.818 12.312.9 15.55 10.944 27.805 26.057 31.794 3.87 1.022 4.75 1.014 4.75-.043 0-1.641-26.682-47.916-27.853-48.306-.476-.159-1.438 1.75-2.136 4.243m27.955-2.679c-4.568 2.293-7.966 7.543-7.966 12.309 0 2.086.401 4.041.892 4.344.863.534 11.607-17.267 10.868-18.007-.202-.201-1.909.408-3.794 1.354m8.201-.978c1.567 3.769 10.397 18.198 11.136 18.198.534 0 .746-2.394.488-5.508-.334-4.023-1.108-6.205-2.874-8.095-3.244-3.472-9.691-6.858-8.75-4.595m29.079.459c-2.858 3.611-27.184 47.03-26.746 47.739.679 1.099 6.871-.649 12.5-3.529 4.519-2.312 11.274-8.742 14.233-13.549 4.238-6.883 5.773-18.042 3.644-26.496-1.248-4.955-2.169-6.012-3.631-4.165m-37.006 9.703c-2.882 4.93-5.24 9.205-5.24 9.5 0 .295 4.95.536 11 .536s11-.284 11-.631c0-1.172-10.144-18.369-10.836-18.369-.377 0-3.043 4.034-5.924 8.964m5.26 11.984l-11 .552 3.618 2.25c4.6 2.861 11.188 2.971 15.632.261 1.787-1.09 3.25-2.438 3.25-2.996 0-.558-.113-.926-.25-.817-.137.108-5.2.446-11.25.75m11.032 3.026c-6.364 5.058-13.924 5.252-20.132.518-1.797-1.371-3.492-2.492-3.767-2.492-.276 0 2.507 5.167 6.183 11.482 3.676 6.315 7.075 11.359 7.553 11.21.834-.26 14.911-23.692 14.235-23.692-.181 0-2.013 1.339-4.072 2.974m-79.02 38.988c-.914 2.879.564 4.977 9.154 13 25.887 24.175 63.936 30.351 95.956 15.573 9.949-4.591 17.664-10.128 26.23-18.823 6.588-6.689 7.233-7.684 6.214-9.588L195.93 176h-67.898c-66.583 0-67.909.038-68.52 1.962" fill="#111" fill-rule="evenodd"/><path fill-opacity=".318" d="M124.5 26.955c-1.1.456-3.424 2.453-5.165 4.437-1.982 2.26-4.06 3.608-5.561 3.608-1.319 0-5.913.921-10.21 2.046-32.606 8.541-58.493 35.145-66.728 68.577-4.105 16.669-2.74 39.338 3.294 54.692 1.706 4.342 1.744 5.027.381 6.973-4.333 6.185.795 15.641 8.509 15.69 3.02.019 4.085.736 7.5 5.047 7.575 9.564 22.675 20.721 34.82 25.728 20.357 8.393 44.906 9.56 65.021 3.092 15.972-5.136 33.443-16.701 42.628-28.217 4.06-5.09 4.859-5.628 8.349-5.628 7.522 0 12.472-9.543 8.151-15.712-1.363-1.946-1.325-2.631.381-6.973 5.989-15.238 7.373-38.188 3.299-54.692-5.709-23.124-20.056-43.388-39.893-56.344-11.802-7.708-21.9-11.562-38.855-14.83-1.143-.221-2.606-1.56-3.252-2.977-.645-1.417-2.733-3.228-4.639-4.024-3.872-1.618-5.129-1.695-8.03-.493m-18.2 15.521c-5.06 1.308-13.186 4.437-18.058 6.953-39.295 20.295-57.144 65.62-42.479 107.867 1.436 4.136 2 4.755 4.101 4.5 2.083-.253 7.364-8.798 36.336-58.789 40.064-69.129 38.815-65.368 20.1-60.531m30.947-.118c-.947 2.078 2.62 8.7 32.714 60.737 32.126 55.55 33.916 58.405 36.615 58.405 2.65 0 2.989-.485 5.135-7.335 9.241-29.506 2.953-60.74-16.887-83.874-6.426-7.493-15.551-14.922-24.424-19.884-6.789-3.797-20.831-8.696-27.995-9.768-3.62-.542-4.219-.342-5.158 1.719m-45.534 63.379c-32.004 55.572-33.726 58.817-32.629 61.466L60.243 170H195.77l1.591-2.428c1.557-2.376.869-3.677-32.375-61.244-31.279-54.162-34.184-58.833-36.726-59.038-2.648-.213-4.126 2.151-36.547 58.447m23.571-14.845c-6.024 2.235-13.582 7.388-15.8 10.772-.841 1.285-2.365 2.336-3.385 2.336-2.651 0-4.416 2.563-3.839 5.577.272 1.424-.158 4.689-.954 7.256-2.292 7.382-1.308 19.29 2.202 26.645 5.015 10.509 16.256 19.501 26.409 21.125 2.246.359 4.083 1.029 4.083 1.49 0 .46.93 1.334 2.067 1.943 1.635.875 2.628.729 4.75-.696 1.476-.991 4.85-2.371 7.499-3.067 14.101-3.705 24.918-15.881 27.668-31.144.946-5.251.866-7.763-.455-14.285-.882-4.353-1.323-8.368-.98-8.923.755-1.222-2.161-5.921-3.675-5.921-.594 0-3.396-2.094-6.227-4.653-7.844-7.091-14.328-9.688-25.147-10.071-7.02-.248-10.148.107-14.216 1.616m3.216 1.448c-2.2.728-5.514 2.113-7.364 3.077-4.402 2.293-12.264 9.567-11.564 10.699.3.486 13.344.884 28.987.884 31.874 0 31.746.035 24.191-6.547-6.705-5.841-13.974-8.759-22.73-9.124-4.424-.184-9.167.232-11.52 1.011m-4.481 17.441c-7.414.154-13.8.604-14.19 1-.962.974 26.594 48.65 28.311 48.983.84.163 6.613-8.844 15.11-23.575 12.987-22.515 14.796-26.162 13-26.208-12.836-.328-31.783-.418-42.231-.2m9.665 2.646c-7.903 2.864-11.184 8.123-10.408 16.682.445 4.902 1.008 6.183 3.872 8.797 3.182 2.905 8.581 5.182 11.852 4.999.825-.046-.673-.681-3.329-1.411-4.657-1.28-8.671-3.895-8.671-5.649 0-.465 5.245-.845 11.655-.845h11.655l-1.905 2.137c-1.048 1.175-3.255 2.732-4.905 3.46-1.692.747-2.271 1.342-1.328 1.364.92.021 3.591-1.424 5.935-3.212 3.435-2.62 4.305-3.93 4.483-6.75.121-1.924.007-2.487-.254-1.249-.262 1.238-.781 2.25-1.156 2.25-.374 0-3.097-4.296-6.05-9.546-2.954-5.251-5.574-9.343-5.823-9.095-.248.249.624 2.182 1.939 4.297 1.315 2.114 3.855 6.432 5.646 9.594l3.255 5.75H128.5c-8.823 0-11.568-.303-11.323-1.25.178-.687 2.573-5.2 5.323-10.028 3.356-5.892 5.733-8.967 7.23-9.353 3.428-.885 8.481 2.607 11.02 7.616 1.238 2.441 2.25 3.735 2.25 2.875 0-2.47-4.219-8.085-7.503-9.986-4.493-2.601-7.585-2.98-11.813-1.447m-29.85 3.242c-.649 1.557-1.2 6.656-1.226 11.331-.04 7.275.363 9.397 2.797 14.722 2.934 6.422 10.477 14.615 16.153 17.548 4.522 2.337 11.571 4.001 12.598 2.974 1.026-1.026-25.928-48.369-27.9-49.005-.684-.221-1.774.873-2.422 2.43m26.465-.709c-1.761 1.073-3.899 3.299-4.75 4.946-1.636 3.163-2.124 11.62-.721 12.488.455.281 2.785-2.955 5.177-7.191 2.392-4.237 4.996-8.716 5.787-9.953 1.306-2.043 1.267-2.25-.427-2.246-1.026.002-3.306.882-5.066 1.956m25.299 21.797C138.119 149.823 132 161.123 132 161.868c0 1.888 6.011.667 12.231-2.485 7.022-3.558 12.012-8.486 15.812-15.615 2.79-5.234 3.41-7.588 3.758-14.268.454-8.711-1.076-16.5-3.242-16.5-.75 0-7.483 10.691-14.961 23.757m-86.395 41.29c-1.143 1.829-.78 2.629 3.422 7.547 10.018 11.726 26.976 22.099 43.53 26.625 7.014 1.917 10.659 2.266 22.845 2.188 12.734-.082 15.596-.424 23.5-2.809 15.5-4.677 29.797-13.578 40.342-25.115 5.346-5.849 5.561-6.27 4.551-8.901-.545-1.421-7.536-1.582-68.759-1.582-67.587 0-68.164.017-69.431 2.047" fill="#111" fill-rule="evenodd"/><path fill-opacity=".348" d="M62 61.907c-18.513 18.694-27.14 39.58-27.113 65.638.012 11.588 1.884 23.095 5.2 31.958 1.807 4.829 1.832 5.446.37 8.945-.941 2.254-1.318 4.909-.94 6.629.84 3.827 5.841 7.923 9.672 7.923 2.477 0 4.238 1.298 9.561 7.047 16.359 17.669 35.918 27.521 59.972 30.209 22.71 2.538 46.248-4.048 65.534-18.336 3.158-2.34 5.521-4.477 5.249-4.748-.271-.271-1.508.363-2.749 1.41-2.024 1.708-2.006 1.621.181-.852 1.893-2.141 2.169-3.024 1.239-3.954-.931-.931-1.698-.674-3.437 1.151-1.232 1.291-1.564 1.989-.739 1.55.825-.439 1.149-.412.721.058-.428.471-1.407.948-2.175 1.061-.768.113-3.343 1.538-5.721 3.168C163.124 210.15 146.622 215 128.392 215c-22.596 0-42.327-7.472-58.89-22.302-9.229-8.264-11.934-12.021-10.536-14.634 1.048-1.959 1.955-2.064 17.819-2.065 24.43-.002 97.099-1.38 94.45-1.791-1.245-.193-2.006-.769-1.691-1.279.316-.511-.465-.974-1.735-1.029-2.278-.098-2.275-.11.191-.9 1.375-.44-22.265-.845-52.534-.9l-55.035-.1-1.677-2.839c-.937-1.586-1.302-3.24-.827-3.75.468-.501 10.859-18.373 23.092-39.715 21.941-38.281 22.215-38.829 20.275-40.637-1.938-1.805-2.32-1.225-25.381 38.523-21.551 37.145-23.626 40.358-26.091 40.387-2.344.027-2.939-.665-4.762-5.539-3.465-9.259-5.365-22.731-4.717-33.43 1.361-22.449 9.689-41.26 25.358-57.277 3.739-3.823 6.819-7.462 6.844-8.087.025-.625.644-1.005 1.376-.844 1.605.352 5.234-2.733 4.538-3.858-.272-.44-1.948-.759-3.726-.71-2.709.075-4.773 1.646-12.733 9.683m43.307 34.985c-2.196 1.591-4.916 4.066-6.044 5.5-1.128 1.435-2.968 2.608-4.09 2.608-2.116 0-3.8 3.176-2.661 5.019.352.571-.119 4.062-1.049 7.759-5.146 20.477 7.277 41.099 27.884 46.288 2.526.636 5.111 1.781 5.745 2.545 1.534 1.848 5.823 1.775 6.546-.111.317-.825 1.214-1.5 1.994-1.5 5.255 0 22.368-9.31 22.368-12.169 0-.55-1.748.385-3.884 2.077-7.414 5.872-18.874 9.91-20.528 7.234-.292-.472 2.379-5.985 5.936-12.25 3.557-6.266 6.442-11.842 6.413-12.392-.07-1.279-.801-.166-8.053 12.25-3.898 6.675-6.579 10.244-7.685 10.234-2.086-.021-29.631-47.416-28.806-49.566.419-1.091 3.149-1.464 11.826-1.617l11.281-.2-11.42-.55c-7.967-.385-11.547-.937-11.842-1.827-.435-1.314 5.338-7.493 9.762-10.449 1.375-.918 2.005-1.694 1.4-1.723-.605-.028-2.897 1.25-5.093 2.84m-11.508 17.777c-.667 1.557-1.232 7.106-1.256 12.331-.037 8.275.304 10.24 2.645 15.236 4.84 10.328 15.989 19.173 25.829 20.493 2.983.4 3.98.188 3.97-.847-.02-2.048-27.293-49.151-28.738-49.632-.68-.227-1.783.862-2.45 2.419M114 134.5c0 .917.484 1.505 1.075 1.308.591-.197 1.075-.786 1.075-1.308s-.484-1.111-1.075-1.308c-.591-.197-1.075.391-1.075 1.308m26.333.044c0 .801.375 1.456.834 1.456.458 0 .833-.423.833-.941s-.375-1.173-.833-1.456c-.459-.283-.834.14-.834.941" fill="#111" fill-rule="evenodd"/></svg>