<svg width="306" height="306" viewBox="0 0 306 306" fill="none" xmlns="http://www.w3.org/2000/svg">
<path d="M153 303C235.843 303 303 235.843 303 153C303 70.1573 235.843 3 153 3C70.1573 3 3 70.1573 3 153C3 235.843 70.1573 303 153 303Z" fill="url(#paint0_radial)"/>
<path d="M227.521 24.7305L80.036 279.238M78.8631 24.7305L226.055 278.359M6 153.042H300.922M294.23 116.782H10.0088M296.57 123.853L199 291.82M296.286 181.579L193.509 10.3632L50.5173 257.345M294.23 189.303H10.0088M251.737 44.1342H53.7042M255.528 48.8893L113.348 294.225M108.277 12.4096L9.21703 183.985M112.92 11.6079L255.516 256.944M50.3688 48.0876L192.658 293.424M8.70784 121.448L107.574 291.82M54.506 261.697H250.935M153.046 8L280.006 225.563H27.2579L153.046 8ZM279.469 80.4369H27.0133L153.089 298L279.469 80.4369Z" stroke="white" stroke-opacity="0.3" stroke-width="2"/>
<path d="M282.933 228L275.43 215.008L217.966 115.5L160.503 15.9925L153.002 3M23.0674 228H38.0674H153H267.933H282.933H23.0674ZM23.0674 228L30.5699 215.008L88.0336 115.5L145.498 15.9911L153.002 3L23.0674 228ZM23.0674 228L16.2155 214.653C7.72539 195.846 3 174.975 3 153C3 75.2131 62.2103 11.2555 138.019 3.7387L153.002 3L23.0674 228ZM23.0674 228L31.2189 240.594C58.4542 278.392 102.853 303 153 303C203.147 303 247.546 278.392 274.781 240.594L282.933 228H23.0674ZM282.933 228L289.785 214.653C298.275 195.846 303 174.975 303 153C303 75.2142 243.791 11.2573 167.984 3.73901L153.002 3L282.933 228Z" stroke="white" stroke-width="5"/>
<path d="M303 153C303 75.2142 243.791 11.2573 167.984 3.73901L153.002 3L138.019 3.7387C62.2103 11.2555 3 75.2131 3 153C3 174.975 7.72539 195.846 16.2155 214.653L23.0674 228L31.2189 240.594C58.4542 278.392 102.853 303 153 303C203.147 303 247.546 278.392 274.781 240.594L282.933 228L289.785 214.653C298.275 195.846 303 174.975 303 153Z" stroke="white" stroke-width="5"/>
<path d="M88.0336 115.5L91.7849 121.996L120.516 171.75L149.249 221.504L152.999 228M217.966 115.5H210.466H153H95.5336H88.0336H217.966ZM217.966 115.5L214.215 121.996L185.484 171.75L156.751 221.504L152.999 228L217.966 115.5ZM217.966 115.5L221.392 122.174C225.637 131.577 228 142.012 228 153C228 191.894 198.395 223.872 160.49 227.63L152.999 228L217.966 115.5ZM217.966 115.5L213.89 109.203C200.272 90.3038 178.074 78 153 78C127.926 78 105.727 90.3038 92.1094 109.203L88.0336 115.5H217.966ZM88.0336 115.5L84.6077 122.174C80.3627 131.577 78 142.012 78 153C78 191.893 107.605 223.872 145.509 227.63L152.999 228L88.0336 115.5Z" stroke="white" stroke-width="5"/>
<path d="M183.318 170.5L181.567 167.468L168.159 144.25L154.751 121.032L153.001 118M122.683 170.5H126.183H153H179.818H183.318H122.683ZM122.683 170.5L124.433 167.468L137.841 144.25L151.249 121.032L153.001 118L122.683 170.5ZM122.683 170.5L121.084 167.386C119.103 162.998 118 158.128 118 153C118 134.85 131.816 119.927 149.505 118.173L153.001 118L122.683 170.5ZM122.683 170.5L124.585 173.438C130.94 182.258 141.299 188 153 188C164.701 188 175.06 182.258 181.416 173.438L183.318 170.5H122.683ZM183.318 170.5L184.916 167.386C186.897 162.998 188 158.128 188 153C188 134.85 174.185 119.927 156.496 118.173L153.001 118L183.318 170.5Z" stroke="white" stroke-width="5"/>
<defs>
<radialGradient id="paint0_radial" cx="0" cy="0" r="1" gradientUnits="userSpaceOnUse" gradientTransform="translate(152.363 152.438) scale(149.46)">
<stop offset="0.0529" stop-color="#A1D4DF"/>
<stop offset="0.172" stop-color="#50CBDF"/>
<stop offset="0.3012" stop-color="#13ACD6"/>
<stop offset="0.4259" stop-color="#139CCC"/>
<stop offset="0.5319" stop-color="#1472AC"/>
<stop offset="0.6852" stop-color="#2D478D"/>
<stop offset="0.8175" stop-color="#672D7A"/>
<stop offset="0.9603" stop-color="#682D7A"/>
</radialGradient>
</defs>
</svg>
