<svg width="410" height="410" viewBox="0 0 410 410" fill="none" xmlns="http://www.w3.org/2000/svg">
<path d="M204.635 389C305.624 389 387.492 307.132 387.492 206.143C387.492 105.154 305.624 23.2861 204.635 23.2861C103.646 23.2861 21.7778 105.154 21.7778 206.143C21.7778 307.132 103.646 389 204.635 389Z" fill="url(#paint0_radial)"/>
<path d="M297.159 47.7874L113.205 365.227M111.742 47.7874L295.331 364.13M20.8623 207.826H388.71M256.985 388.628L257.046 388.733M256.985 388.628H257.107L257.046 388.733M256.985 388.628L73.3422 71.9889H335.528L152.025 388.628M257.046 388.733L388.405 162.6H20.8623L152.025 388.628M152.025 388.628L151.965 388.733L151.904 388.628H152.025ZM204.268 26.9199L362.622 298.28H47.3766L204.268 26.9199ZM254.736 29.8674L388.71 253.053H21.0452L151.605 26.9199L335.522 343.349H73.2443L254.736 29.8674ZM361.951 117.268L47.0715 117.268L204.322 388.628L361.951 117.268Z" stroke="white" stroke-opacity="0.3" stroke-width="0.5"/>
<path d="M204.634 242.714C224.832 242.714 241.205 226.34 241.205 206.143C241.205 185.945 224.832 169.571 204.634 169.571C184.436 169.571 168.062 185.945 168.062 206.143C168.062 226.34 184.436 242.714 204.634 242.714Z" fill="url(#paint1_radial)"/>
<path d="M46.241 315.857C56.3399 315.857 64.5267 307.67 64.5267 297.571C64.5267 287.472 56.3399 279.285 46.241 279.285C36.1421 279.285 27.9553 287.472 27.9553 297.571C27.9553 307.67 36.1421 315.857 46.241 315.857Z" fill="white"/>
<path d="M46.241 315.857C56.3399 315.857 64.5267 307.67 64.5267 297.571C64.5267 287.472 56.3399 279.285 46.241 279.285C36.1421 279.285 27.9553 287.472 27.9553 297.571C27.9553 307.67 36.1421 315.857 46.241 315.857Z" fill="white"/>
<path d="M204.637 41.5714C214.736 41.5714 222.922 33.3846 222.922 23.2857C222.922 13.1868 214.736 5 204.637 5C194.538 5 186.351 13.1868 186.351 23.2857C186.351 33.3846 194.538 41.5714 204.637 41.5714Z" fill="white"/>
<path d="M363.029 315.857C373.128 315.857 381.315 307.67 381.315 297.571C381.315 287.472 373.128 279.285 363.029 279.285C352.93 279.285 344.743 287.472 344.743 297.571C344.743 307.67 352.93 315.857 363.029 315.857Z" fill="white"/>
<path d="M204.635 23.2857C103.646 23.2857 21.7778 105.154 21.7778 206.143C21.7778 239.449 30.6825 270.675 46.2409 297.571M204.635 23.2857C305.624 23.2857 387.492 105.154 387.492 206.143C387.492 239.449 378.587 270.675 363.029 297.571M204.635 23.2857L125.438 160.428L46.2409 297.571M204.635 23.2857L283.832 160.428L363.029 297.571M204.635 23.2857L204.637 5M204.635 23.2857L204.637 41.5714M204.635 23.2857H222.922M204.635 23.2857H186.351M363.029 297.571C331.412 352.227 272.318 389 204.635 389C136.952 389 77.8577 352.227 46.2409 297.571M363.029 297.571H204.635H46.2409M363.029 297.571L363.029 279.285M363.029 297.571L363.029 315.857M363.029 297.571H381.315M363.029 297.571H344.743M46.2409 297.571L46.241 279.285M46.2409 297.571L46.241 315.857M46.2409 297.571H64.5267M46.2409 297.571H27.9553M64.5267 297.571C64.5267 307.67 56.3399 315.857 46.241 315.857M64.5267 297.571C64.5267 287.472 56.3399 279.285 46.241 279.285M46.241 315.857C36.1421 315.857 27.9553 307.67 27.9553 297.571M27.9553 297.571C27.9553 287.472 36.1421 279.285 46.241 279.285M222.922 23.2857C222.922 33.3846 214.736 41.5714 204.637 41.5714M222.922 23.2857C222.922 13.1868 214.736 5 204.637 5M204.637 41.5714C194.538 41.5714 186.351 33.3846 186.351 23.2857M186.351 23.2857C186.351 13.1868 194.538 5 204.637 5M381.315 297.571C381.315 307.67 373.128 315.857 363.029 315.857M381.315 297.571C381.315 287.472 373.128 279.285 363.029 279.285M363.029 315.857C352.93 315.857 344.743 307.67 344.743 297.571M344.743 297.571C344.743 287.472 352.93 279.285 363.029 279.285" stroke="white" stroke-width="6"/>
<path d="M274.328 157.87C269.884 157.87 266.282 161.472 266.282 165.915C266.282 170.359 269.884 173.961 274.328 173.961C278.772 173.961 282.374 170.359 282.374 165.915C282.374 161.472 278.772 157.87 274.328 157.87Z" fill="white"/>
<path d="M274.328 157.87C269.884 157.87 266.282 161.472 266.282 165.915C266.282 170.359 269.884 173.961 274.328 173.961C278.772 173.961 282.374 170.359 282.374 165.915C282.374 161.472 278.772 157.87 274.328 157.87Z" fill="url(#paint2_linear)"/>
<path d="M274.328 157.87C269.884 157.87 266.282 161.472 266.282 165.915C266.282 170.359 269.884 173.961 274.328 173.961C278.772 173.961 282.374 170.359 282.374 165.915C282.374 161.472 278.772 157.87 274.328 157.87Z" fill="white"/>
<path d="M274.328 157.87C269.884 157.87 266.282 161.472 266.282 165.915C266.282 170.359 269.884 173.961 274.328 173.961C278.772 173.961 282.374 170.359 282.374 165.915C282.374 161.472 278.772 157.87 274.328 157.87Z" fill="url(#paint3_linear)"/>
<path d="M204.634 278.555C200.19 278.555 196.588 282.157 196.588 286.601C196.588 291.044 200.19 294.646 204.634 294.646C209.077 294.646 212.68 291.044 212.68 286.601C212.68 282.157 209.077 278.555 204.634 278.555Z" fill="white"/>
<path d="M204.634 278.555C200.19 278.555 196.588 282.157 196.588 286.601C196.588 291.044 200.19 294.646 204.634 294.646C209.077 294.646 212.68 291.044 212.68 286.601C212.68 282.157 209.077 278.555 204.634 278.555Z" fill="url(#paint4_linear)"/>
<path d="M134.941 157.87C130.498 157.87 126.896 161.472 126.896 165.915C126.896 170.359 130.498 173.961 134.941 173.961C139.385 173.961 142.987 170.359 142.987 165.915C142.987 161.472 139.385 157.87 134.941 157.87Z" fill="white"/>
<path d="M134.941 157.87C130.498 157.87 126.896 161.472 126.896 165.915C126.896 170.359 130.498 173.961 134.941 173.961C139.385 173.961 142.987 170.359 142.987 165.915C142.987 161.472 139.385 157.87 134.941 157.87Z" fill="url(#paint5_linear)"/>
<path d="M204.635 286.601C249.07 286.601 285.092 250.579 285.092 206.144C285.092 191.489 281.174 177.749 274.328 165.915M204.635 286.601C160.2 286.601 124.178 250.579 124.178 206.144C124.178 191.489 128.096 177.749 134.941 165.915M204.635 286.601L239.481 226.258L274.328 165.915M204.635 286.601L169.788 226.258L134.941 165.915M134.941 165.915C148.853 141.867 174.854 125.687 204.635 125.687C234.415 125.687 260.417 141.867 274.328 165.915M134.941 165.915L204.635 165.915H274.328M134.941 165.915L134.941 173.961M134.941 165.915L134.941 157.87M134.941 165.915H126.896M134.941 165.915H142.987M274.328 165.915L274.328 173.961M274.328 165.915L274.328 157.87M274.328 165.915H266.282M274.328 165.915H282.374M266.282 165.915C266.282 161.472 269.884 157.87 274.328 157.87M266.282 165.915C266.282 170.359 269.884 173.961 274.328 173.961M274.328 157.87C278.772 157.87 282.374 161.472 282.374 165.915M282.374 165.915C282.374 170.359 278.772 173.961 274.328 173.961M204.634 286.601L204.634 294.646M204.634 286.601L204.634 278.555M204.634 286.601H196.588M204.634 286.601H212.68M196.588 286.601C196.588 282.157 200.19 278.555 204.634 278.555M196.588 286.601C196.588 291.044 200.19 294.646 204.634 294.646M204.634 278.555C209.077 278.555 212.68 282.157 212.68 286.601M212.68 286.601C212.68 291.044 209.077 294.646 204.634 294.646M126.896 165.915C126.896 161.472 130.498 157.87 134.941 157.87M126.896 165.915C126.896 170.359 130.498 173.961 134.941 173.961M134.941 157.87C139.385 157.87 142.987 161.472 142.987 165.915M142.987 165.915C142.987 170.359 139.385 173.961 134.941 173.961" stroke="white" stroke-width="5"/>
<path d="M176.123 226.414C177.941 226.414 179.415 224.917 179.415 223.07C179.415 221.223 177.941 219.726 176.123 219.726C174.305 219.726 172.832 221.223 172.832 223.07C172.832 224.917 174.305 226.414 176.123 226.414Z" fill="white"/>
<path d="M176.123 226.414C177.941 226.414 179.415 224.917 179.415 223.07C179.415 221.223 177.941 219.726 176.123 219.726C174.305 219.726 172.832 221.223 172.832 223.07C172.832 224.917 174.305 226.414 176.123 226.414Z" fill="white"/>
<path d="M204.634 176.259C206.452 176.259 207.926 174.762 207.926 172.915C207.926 171.068 206.452 169.571 204.634 169.571C202.817 169.571 201.343 171.068 201.343 172.915C201.343 174.762 202.817 176.259 204.634 176.259Z" fill="white"/>
<path d="M233.145 226.414C234.963 226.414 236.436 224.917 236.436 223.07C236.436 221.223 234.963 219.726 233.145 219.726C231.327 219.726 229.853 221.223 229.853 223.07C229.853 224.917 231.327 226.414 233.145 226.414Z" fill="white"/>
<path d="M204.634 172.915C186.456 172.915 171.72 187.885 171.72 206.352C171.72 212.442 173.323 218.152 176.123 223.07M204.634 172.915C222.812 172.915 237.548 187.885 237.548 206.352C237.548 212.442 235.945 218.152 233.145 223.07M204.634 172.915L190.379 197.992L176.123 223.07M204.634 172.915L218.889 197.992L233.145 223.07M233.145 223.07C227.454 233.064 216.817 239.788 204.634 239.788C192.451 239.788 181.814 233.064 176.123 223.07M233.145 223.07H204.634H176.123M233.145 223.07L233.145 219.726M233.145 223.07L233.145 226.414M233.145 223.07H236.436M233.145 223.07H229.853M176.123 223.07L176.123 219.726M176.123 223.07L176.123 226.414M176.123 223.07H179.415M176.123 223.07H172.832M179.415 223.07C179.415 224.917 177.941 226.414 176.123 226.414M179.415 223.07C179.415 221.223 177.941 219.726 176.123 219.726M176.123 226.414C174.305 226.414 172.832 224.917 172.832 223.07M172.832 223.07C172.832 221.223 174.305 219.726 176.123 219.726M204.634 172.915L204.634 169.571M204.634 172.915L204.634 176.259M204.634 172.915H207.926M204.634 172.915H201.343M207.926 172.915C207.926 174.762 206.452 176.259 204.634 176.259M207.926 172.915C207.926 171.068 206.452 169.571 204.634 169.571M204.634 176.259C202.817 176.259 201.343 174.762 201.343 172.915M201.343 172.915C201.343 171.068 202.817 169.571 204.634 169.571M236.436 223.07C236.436 224.917 234.963 226.414 233.145 226.414M236.436 223.07C236.436 221.223 234.963 219.726 233.145 219.726M233.145 226.414C231.327 226.414 229.853 224.917 229.853 223.07M229.853 223.07C229.853 221.223 231.327 219.726 233.145 219.726" stroke="white" stroke-width="5"/>
<defs>
<radialGradient id="paint0_radial" cx="0" cy="0" r="1" gradientUnits="userSpaceOnUse" gradientTransform="translate(203.859 205.458) scale(182.199)">
<stop offset="0.0529" stop-color="#A1D4DF"/>
<stop offset="0.172" stop-color="#50CBDF"/>
<stop offset="0.3012" stop-color="#13ACD6"/>
<stop offset="0.4259" stop-color="#139CCC"/>
<stop offset="0.5319" stop-color="#1472AC"/>
<stop offset="0.6852" stop-color="#2D478D"/>
<stop offset="0.8175" stop-color="#672D7A"/>
<stop offset="0.9603" stop-color="#682D7A"/>
</radialGradient>
<radialGradient id="paint1_radial" cx="0" cy="0" r="1" gradientUnits="userSpaceOnUse" gradientTransform="translate(204.479 206.006) rotate(-0.537093) scale(180.46)">
<stop offset="0.0529" stop-color="#A1D4DF"/>
<stop offset="0.172" stop-color="#50CBDF"/>
<stop offset="0.3012" stop-color="#13ACD6"/>
</radialGradient>
<linearGradient id="paint2_linear" x1="204.635" y1="294.646" x2="204.635" y2="125.687" gradientUnits="userSpaceOnUse">
<stop stop-color="white"/>
<stop offset="1" stop-color="white" stop-opacity="0"/>
</linearGradient>
<linearGradient id="paint3_linear" x1="204.635" y1="294.646" x2="204.635" y2="125.687" gradientUnits="userSpaceOnUse">
<stop stop-color="white"/>
<stop offset="1" stop-color="white" stop-opacity="0"/>
</linearGradient>
<linearGradient id="paint4_linear" x1="204.635" y1="294.646" x2="204.635" y2="125.687" gradientUnits="userSpaceOnUse">
<stop stop-color="white"/>
<stop offset="1" stop-color="white" stop-opacity="0"/>
</linearGradient>
<linearGradient id="paint5_linear" x1="204.635" y1="294.646" x2="204.635" y2="125.687" gradientUnits="userSpaceOnUse">
<stop stop-color="white"/>
<stop offset="1" stop-color="white" stop-opacity="0"/>
</linearGradient>
</defs>
</svg>
