<svg xmlns="http://www.w3.org/2000/svg" width="1240" height="1240"><path d="M615.226 287.152c-11.032 1.754-22.161 10.328-26.267 20.235l-2.136 5.153-12.162 1.736c-52.051 7.434-102.775 29.483-145.036 63.046-12.647 10.044-33.331 30.178-43.844 42.678-63.289 75.252-86.291 174.82-62.75 271.626 3.14 12.916 8.795 30.182 13.732 41.934l2.967 7.059-2.752 3.079c-6.715 7.516-8.985 22.862-4.97 33.594 5.301 14.168 20.56 23.785 35.524 22.387l6.149-.574 6.593 8.293c48.893 61.495 118.883 101.664 196.213 112.608 28.048 3.97 41.863 4.543 63.571 2.637 28.532-2.505 45.622-5.57 68.426-12.273 51.151-15.035 101.794-47.023 138.315-87.365 5.71-6.308 12.45-14.285 14.977-17.727l4.595-6.258 6.625.616c11.598 1.078 21.836-3.094 29.804-12.146 6.209-7.054 8.487-14.05 7.975-24.49-.432-8.821-2.204-13.743-7.402-20.572l-2.338-3.071 3.333-7.929c10.745-25.554 17.47-54.247 21.101-90.018 1.929-19.009 1.929-29.811 0-48.82-3.127-30.81-8.313-55.026-16.945-79.122-5.631-15.72-20.02-45.214-28.909-59.255-48.462-76.556-126.777-127.447-215.865-140.275l-8.751-1.26-2.385-5.209c-6.678-14.588-21.787-22.799-37.388-20.317M578.5 333.708c-1.65.225-8.407 1.489-15.015 2.809-82.095 16.396-153.236 68.699-194.364 142.894-16.494 29.757-28.379 66.693-33.33 103.589-1.673 12.47-1.671 55.552.003 68 3.228 23.997 8.79 46.349 16.921 68l3.943 10.5h15.7L436.196 619c35.111-60.775 66.934-115.9 70.717-122.5a4202.98 4202.98 0 0111.832-20.5c2.724-4.675 20.811-35.943 40.194-69.484 34.969-60.514 35.228-61.003 33.583-63.5-.912-1.384-2.371-4.203-3.242-6.266-1.676-3.969-2.425-4.18-10.78-3.042m73.833 2.934c-1.09 2.122-2.795 5.214-3.789 6.87l-1.808 3.012 33.788 58.488A86648.602 86648.602 0 00719.827 473c8.623 14.854 22.527 38.929 86.628 150 32.853 56.925 60.3 104.4 60.995 105.5 1.114 1.765 2.149 1.962 8.809 1.674 5.995-.258 7.657-.67 8.078-2 .292-.921 2.611-7.299 5.152-14.174 7.768-21.014 12.931-44.061 15.541-69.375 1.593-15.451.748-54.36-1.49-68.625-8.094-51.589-28.324-98.378-59.233-137-9.301-11.622-28.823-31.591-40.307-41.23-30.393-25.509-66.063-44.639-103.135-55.309-12.24-3.523-31.81-7.782-41.457-9.022l-5.092-.655-1.983 3.858M544.858 471.238a475009.333 475009.333 0 00-71.949 124.561c-9.556 16.583-80.028 138.56-81.593 141.227-1.396 2.379-1.274 2.836 2.111 7.865 1.976 2.937 3.862 6.412 4.191 7.724l.599 2.385h444.566l.599-2.385c.329-1.312 2.131-4.662 4.003-7.445l3.405-5.059-43.503-75.306c-23.927-41.418-47.021-81.38-51.32-88.805-4.299-7.425-34.569-59.824-67.267-116.442l-59.451-102.942-9.016-.119-9.017-.119-66.358 114.86M595 492.908c-27.838 6.123-50.572 19.783-70.362 42.28-3.611 4.104-6.398 6.458-7.257 6.128-2.903-1.114-8.489.859-11.797 4.166-4.64 4.64-5.511 9.972-2.609 15.967l2.152 4.444-3.002 8.804c-5.066 14.856-6.531 24.11-6.538 41.303-.007 17.488 1.595 27.686 6.564 41.775 6.491 18.403 15.878 33.285 29.825 47.285 18.701 18.772 44.502 31.998 69.239 35.491 3.974.561 5.029 1.198 6.711 4.048 5.577 9.452 18.633 9.813 24.402.674 2.344-3.714 2.78-3.931 10.178-5.081 9.703-1.509 23.639-6.141 33.859-11.255 23.89-11.955 44.195-31.987 55.908-55.159 10.076-19.933 13.193-33.576 13.199-57.778.004-19.206-1.121-26.479-6.468-41.811l-2.993-8.581 2.1-4.337c4.585-9.471-2.457-20.241-13.262-20.284-2.903-.012-4.058-.88-8.674-6.518-14.885-18.182-39.567-33.701-63.881-40.166-8.633-2.296-12.105-2.643-29.294-2.934-16.218-.275-20.931-.016-28 1.539m8.5 6.479c-26.999 4.499-47.39 15.105-66.792 34.74l-10.792 10.922 1.758 2.976 1.757 2.975h182.138l1.687-2.857 1.688-2.857-5.232-6.041c-21.916-25.308-51.942-39.671-85.212-40.764-8.182-.269-15.965.067-21 .906m-75.835 62.936l-1.79 3.324 45.436 78.926 45.435 78.927 3.877.247 3.877.247 45.375-79.057 45.376-79.056-1.853-3.441-1.853-3.44h-182.09l-1.79 3.323m88.125 2.054c-1.402 1.455-4.015 2.635-6.738 3.043-16.745 2.511-34.342 20.208-38.102 38.32-1.474 7.101-.754 20.252 1.452 26.505 1.288 3.652 1.418 5.222.565 6.817-1.36 2.541 1.08 6.938 3.849 6.938.974 0 4.567 2.719 7.984 6.042 19.995 19.445 50.34 19.433 70.605-.026 3.446-3.309 6.944-6.016 7.775-6.016.83 0 2.345-.923 3.365-2.05 1.512-1.67 1.664-2.559.82-4.794-.771-2.043-.669-3.754.402-6.7.791-2.176 1.673-8.26 1.961-13.521.596-10.921-.87-17.598-5.973-27.216-5.847-11.02-21.205-22.488-32.547-24.302-2.304-.368-5.341-1.738-6.75-3.043-3.245-3.008-5.767-3.007-8.668.003m-104.918 9.428c-4.611 10.74-7.872 28.035-7.872 41.754 0 54.602 36.014 101.21 88.859 114.999 12.017 3.135 14.464 3.125 16.559-.073 1.629-2.486 1.412-2.923-19.492-39.25-77.302-134.336-69.859-121.946-73.19-121.835-2.564.085-3.292.744-4.864 4.405M608 570.36c-15.437 4.202-28.426 16.697-33.155 31.892-2.395 7.694-2.55 20.136-.342 27.498 2.371 7.904 3.923 7.088 11.441-6.017 3.545-6.178 11.769-20.441 18.276-31.695 6.507-11.254 11.609-21.042 11.337-21.75-.592-1.543-1.661-1.533-7.557.072m16.706-.036c-.809 2.109 35.462 64.611 37.516 64.647 2.477.042 5.105-9.701 5.117-18.971.026-20.162-13.349-38.337-33.057-44.922-7.265-2.428-8.885-2.555-9.576-.754m96.743 1.138c-.726 1.121-21.359 36.84-45.85 79.375-44.235 76.823-44.52 77.354-42.874 79.866 1.522 2.323 2.074 2.478 6.828 1.92 13.603-1.599 32.073-8.861 45.83-18.02 41.977-27.944 61.626-78.889 49.248-127.686-3.387-13.351-5.397-17.235-8.997-17.379-1.873-.074-3.323.592-4.185 1.924m-121.27 33.288c-11.999 20.814-18.024 32.2-17.491 33.058 1.192 1.919 73.42 1.91 74.652-.01 1.153-1.795-35.099-64.798-37.285-64.798-1.013 0-8.084 11.295-19.876 31.75m-17.284 38.876c-1.18 1.423-.659 2.266 4.174 6.75 19.397 17.995 46.419 18.156 65.443.389 4.173-3.897 5.46-5.72 4.956-7.015-.632-1.622-3.335-1.75-36.953-1.75-32.269 0-36.419.179-37.62 1.626M396.889 779.217c-1.184 2.322-3.049 5.433-4.144 6.914l-1.991 2.693 7.367 8.838c46.319 55.562 108.673 91.571 176.379 101.855 6.05.919 13.038 1.999 15.528 2.4 9.1 1.465 48.01 1.214 61.472-.396 54.229-6.488 97.996-23.921 141.5-56.361 12.573-9.375 40.652-36.636 50.958-49.473l6.273-7.812-2.016-2.188c-1.108-1.203-2.851-3.987-3.873-6.187l-1.858-4-221.72-.252-221.721-.252-2.154 4.221" fill="undefined" fill-rule="evenodd"/></svg>