<svg xmlns="http://www.w3.org/2000/svg" width="256" height="256"><path fill-opacity=".016" d="M0 128.004v128.004l128.25-.254 128.25-.254.254-127.75L257.008 0H0v128.004m.485.496c0 70.4.119 99.053.265 63.672.146-35.38.146-92.98 0-128C.604 29.153.485 58.1.485 128.5" fill="#222" fill-rule="evenodd"/><path fill-opacity=".334" d="M120.192 2.025c-1.82 1.109-4.07 3.37-5 5.024-.931 1.654-2.592 3.17-3.692 3.37-21.906 3.972-37.063 9.755-52.497 20.03-28.642 19.068-47.982 49.148-53.619 83.395-3.045 18.496-.562 44.072 5.952 61.335l2.521 6.679-1.992 3.821c-4.655 8.933 2.041 20.395 12.203 20.887 3.696.18 4.674.847 9.955 6.797 37.455 42.194 95.12 54.499 145.759 31.102 15.198-7.022 33.645-21.44 42.813-33.461 2.741-3.594 4.311-4.851 5.563-4.454 3.208 1.018 9.569-1.475 12.617-4.947 4.138-4.712 4.834-9.437 2.253-15.273l-2.063-4.664 2.971-8.795c10.723-31.729 8.707-63.759-5.883-93.489-12.794-26.07-32.645-45.749-58.467-57.961-10.024-4.741-23.955-9.094-32.205-10.064-4.711-.554-5.578-1.025-7.323-3.983-4.121-6.986-13.182-9.425-19.866-5.349M105 20.552c-31.163 6.784-56.821 24.229-73.68 50.094-18.784 28.816-23.458 65.988-12.419 98.769 2.522 7.489 2.939 8.106 5.661 8.37 2.615.254 3.262-.296 5.882-5 1.619-2.907 21.568-37.46 44.332-76.785 35.922-62.057 41.276-71.829 40.536-73.99-1.055-3.079-2.153-3.235-10.312-1.458m35.241.434c-.683 1.093-1.241 2.509-1.241 3.147 0 .639 19.844 35.52 44.098 77.514C224.829 173.901 227.345 178 229.976 178c2.473 0 3.014-.636 4.893-5.75 18.308-49.815-.345-106.139-44.733-135.073-10.076-6.568-22.443-12.061-33.636-14.94-13.201-3.396-14.841-3.522-16.259-1.251M103.846 63.41c-11.1 19.299-20.85 36.128-21.666 37.397-1.451 2.254-1.418 2.292 1.417 1.611 1.597-.383 5.616-3.276 8.933-6.429 10.187-9.685 20.895-13.956 35.038-13.977 13.71-.02 24.874 4.448 34.902 13.97 5.282 5.016 10.575 8.126 10.507 6.174-.012-.361-9.407-16.856-20.877-36.656-20.589-35.543-20.9-36.008-24.463-36.59l-3.609-.591-20.182 35.091m8.703 24.703c-9.829 3.38-23.766 14.11-22.012 16.947.778 1.258 73.148 1.258 73.926 0 .872-1.411-4.863-7.467-10.811-11.415-11.628-7.718-28.242-9.954-41.103-5.532m-55.053 55.52c-11.548 20.026-21.136 37.049-21.308 37.829-.171.781.443 2.571 1.365 3.979L39.23 188h176.54l1.691-2.581c.93-1.419 1.403-3.332 1.051-4.25-.352-.918-9.928-17.766-21.28-37.44-18.609-32.252-20.752-35.559-21.79-33.62-.912 1.703-.765 3.392.703 8.11 2.326 7.472 2.446 20.405.26 27.849-5.18 17.633-20.614 32.426-37.642 36.076-2.993.641-5.827 1.932-6.57 2.992-.837 1.195-2.523 1.864-4.693 1.864-2.17 0-3.856-.669-4.693-1.864-.743-1.06-3.577-2.351-6.57-2.992-17.028-3.65-32.462-18.443-37.642-36.076-2.171-7.391-2.065-20.379.225-27.738 1.416-4.55 1.582-6.432.746-8.478-1.009-2.467-2.364-.392-22.07 33.781m32.993-32.615c-.447.723 14.567 28.791 16.972 31.731.112.137.167-3.756.121-8.652-.077-8.349.104-9.164 2.918-13.127 2.844-4.005 5.426-5.787 13.5-9.313 3.311-1.447 2.52-1.533-14.691-1.593-11.339-.04-18.428.32-18.82.954m38.061-.183c.522.459 3.059 1.61 5.636 2.558 9.943 3.657 16.305 15.924 12.902 24.875-.502 1.32-.608 2.891-.236 3.492.371.601 4.65-5.821 9.509-14.271 4.859-8.449 8.539-15.841 8.178-16.426-.425-.687-7.065-1.063-18.798-1.063-9.978 0-17.713.376-17.191.835m-45.59 6.915c-1.857 6.136-2.353 18.915-.974 25.109 3.075 13.819 12.474 25.609 25.258 31.68 7.085 3.364 14.376 4.871 14.926 3.085.447-1.452-35.574-63.588-36.873-63.606-.662-.01-1.714 1.67-2.337 3.732m36.424-1.837c-6.147 2.792-9.679 8.016-10.189 15.073-.779 10.764.664 10.184 8.585-3.447 3.971-6.834 7.22-12.676 7.22-12.982 0-.92-1.29-.608-5.616 1.356m11.313 1.184c1.127 1.872 4.654 7.87 7.838 13.33 5.357 9.185 5.859 9.746 6.714 7.5 1.336-3.51.163-11.524-2.26-15.446-2.285-3.696-6.846-6.915-11.415-8.056l-2.926-.73 2.049 3.402m19.606 28.672c-10.522 18.348-17.825 32.104-17.315 32.616.512.513 2.88.382 5.637-.312 13.642-3.435 24.969-12.798 31.099-25.707 3.333-7.019 3.765-8.854 4.111-17.467.41-10.212-1.699-20.917-4.113-20.88-.672.01-9.411 14.298-19.419 31.75M119.75 127.89c-3.713 6.529-6.75 12.15-6.75 12.491 0 .34 6.525.619 14.5.619s14.5-.167 14.5-.37c0-1.007-13.879-24.088-14.63-24.331-.479-.154-3.907 5.062-7.62 11.591M113 143.826c0 1.369 4.313 4.97 7.315 6.107 4.133 1.566 11.323 1.301 14.985-.554 3.745-1.896 6.7-4.337 6.7-5.534 0-.465-6.525-.845-14.5-.845s-14.5.372-14.5.826m31.465 1.126c-1.119.453-2.664 1.583-3.433 2.509-2.441 2.942-8.783 5.539-13.524 5.539-5.42 0-9.796-1.675-14.3-5.473-1.811-1.527-3.469-2.599-3.685-2.383-.216.216 3.347 6.91 7.919 14.874 5.634 9.816 8.867 14.482 10.034 14.482 1.167 0 4.575-4.916 10.572-15.25 4.868-8.387 8.761-15.221 8.652-15.187-.11.035-1.116.435-2.235.889M37.123 199.629c-1.12 2.459-.821 3.053 4.663 9.25C55.684 224.58 77.61 238.024 98.5 243.652c9.035 2.435 11.737 2.702 28 2.771 18.83.081 22.063-.369 37-5.146 18.958-6.063 37.869-18.626 50.471-33.528 4.449-5.26 4.831-6.089 3.825-8.297L216.679 197H38.321l-1.198 2.629" fill="#222" fill-rule="evenodd"/><path fill-opacity=".192" d="M123.352 1.056C120.43 1.936 114 8.015 114 9.898c0 .455-3.487 1.384-7.75 2.064-28.627 4.566-56.525 21.152-75.396 44.826C4.545 89.79-2.875 135.848 11.756 175.32c2.432 6.562 2.474 7.02.898 9.688-2.079 3.521-2.129 10.172-.105 14.086 2.085 4.032 7.065 6.898 11.996 6.902 3.682.004 4.389.457 7.897 5.057 2.119 2.778 7.233 8.166 11.364 11.973 33.456 30.827 81.456 40.817 124.008 25.809 19.008-6.704 33.601-16.279 48.483-31.809 9.312-9.718 10.961-11.026 13.9-11.026 10.463 0 17.225-11.876 11.814-20.75-1.974-3.237-1.974-3.27-.008-8.256 3.181-8.073 5.783-19.143 7.564-32.186 1.555-11.393 1.554-12.956-.025-24.086-.928-6.546-2.561-15.234-3.627-19.306-11.81-45.087-49.914-80.521-95.716-89.007-7.794-1.444-8.907-1.931-10.699-4.677-3.988-6.111-9.903-8.557-16.148-6.676M102.5 20.525C57.417 30.479 22.214 67.639 13.948 114c-2.894 16.233-.991 38.629 4.779 56.25 2.477 7.564 2.616 7.75 5.8 7.75 3.21 0 3.491-.396 17.557-24.75a63007.529 63007.529 0 0144.593-76.98c27.966-48.209 30.21-52.424 29.15-54.75-1.331-2.922-3.772-3.104-13.327-.995m36.742 1.107c-1.188 2.645-.748 3.685 8 18.879 5.092 8.844 25.008 43.383 44.258 76.753l35 60.673 3.286.031c2.933.029 3.484-.432 5.144-4.304 1.022-2.385 2.919-8.348 4.214-13.25 2.079-7.866 2.356-11.147 2.356-27.914 0-17.697-.19-19.686-2.774-29-9.095-32.789-32.225-60.554-62.113-74.56-9.193-4.308-23.392-8.674-31-9.531-4.869-.549-5.173-.443-6.371 2.223M79.268 104.95l-44.233 76.949 1.733 3.044 1.732 3.044h178l1.699-2.986 1.7-2.986-44.321-76.758L131.257 28.5l-3.879-.25-3.878-.249-44.232 76.949M117 83.091c-7.352 1.426-18.549 7.556-24.611 13.475-3.062 2.989-6.101 5.434-6.755 5.434-.654 0-2.232.73-3.507 1.623-1.888 1.323-2.233 2.295-1.861 5.25.251 1.995-.382 6.961-1.405 11.037-3.234 12.878-2.148 22.912 3.799 35.09 6.443 13.192 18.198 22.644 32.937 26.483 3.165.825 6.718 2.403 7.894 3.508 1.176 1.105 2.98 2.009 4.009 2.009 1.029 0 2.833-.904 4.009-2.009 1.176-1.105 4.696-2.675 7.822-3.489 20.256-5.276 34.902-21.567 37.867-42.118 1.016-7.046.93-9.222-.648-16.5-1-4.611-1.748-10.458-1.662-12.993.162-4.789-.96-6.59-4.466-7.168-1.057-.175-4.415-2.771-7.462-5.77A51.469 51.469 0 00117 83.091m-.735 3.386c-2.88.811-7.568 2.656-10.418 4.1C100.178 93.45 90 102.485 90 104.645c0 1.391 8.588 1.663 56.985 1.804 19.906.058 20.746-.33 14.547-6.713-5.099-5.25-11.853-9.646-18.364-11.953-7.424-2.63-20.03-3.242-26.903-1.306m-8.015 23.296c-15.822.236-18.25.482-18.25 1.846 0 2.914 36.162 64.498 37.686 64.179.784-.164 9.656-14.539 19.717-31.944 13.965-24.16 18.074-32.036 17.371-33.293-.813-1.454-3.107-1.612-19.598-1.354-10.272.161-26.889.416-36.926.566m17.32 2.114c-.301.487-2.155 1.188-4.119 1.556-8.312 1.56-15.317 12.173-14.055 21.295a985.3 985.3 0 01.882 6.498c.335 2.617 9.349 9.586 14.028 10.846 6.831 1.84 13.692-.175 20.549-6.036 3.208-2.742 3.376-3.232 3.837-11.207.458-7.914.334-8.57-2.439-12.862-2.014-3.119-4.447-5.263-7.837-6.908l-6.652-3.227c-2.228-1.08-3.507-1.067-4.194.045m-42.597 4.684c-.538 1.414-1.48 5.613-2.094 9.332-3.22 19.498 8.186 40.617 26.586 49.227 7.212 3.375 13.891 4.72 14.948 3.01.932-1.507-35.226-64.14-37.029-64.14-.788 0-1.873 1.157-2.411 2.571m34.506-.141c-6.809 4.082-11.008 14.51-8.484 21.07 1.095 2.847 1.225 2.904 2.54 1.113.762-1.038 4.19-6.763 7.619-12.723 3.428-5.961 6.419-10.65 6.647-10.422.229.228-2.783 6.008-6.693 12.843-3.909 6.835-7.108 12.711-7.108 13.058 0 .347 6.665.631 14.811.631 13.524 0 15.002-.177 17-2.039 1.676-1.561 2.189-3.186 2.189-6.935 0-6.115-1.023-8.844-5.026-13.403-2.901-3.303-10.202-6.729-11.524-5.406-.295.295 2.664 6.036 6.576 12.757 3.912 6.722 6.905 12.428 6.652 12.682-.254.253-3.668-5.145-7.587-11.997-8.599-15.034-9.892-15.858-17.612-11.229m50.24-1.735c-21.079 36.281-35.758 62.76-35.363 63.789.696 1.814 7.161.351 15.432-3.492 12.687-5.896 23.316-19.547 26.262-33.729 2.05-9.871-.569-26.336-4.306-27.068-.857-.168-1.768.057-2.025.5M112 143.949c0 1.774 6.482 5.896 11.096 7.056 3.4.854 5.666.867 8.705.049 4.07-1.096 10.199-5.388 10.199-7.143 0-.508-6.642-.911-15-.911-8.797 0-15 .392-15 .949m-74.622 54.596c-1.432 2.186-1.479 2.898-.335 5.035 2.25 4.204 19.405 20.103 26.977 25.001 45.188 29.232 103.576 24.285 141.797-12.014 4.025-3.822 8.686-8.677 10.359-10.789 2.784-3.515 2.937-4.091 1.811-6.809l-1.23-2.969H39.046l-1.668 2.545" fill="#222" fill-rule="evenodd"/><path fill-opacity=".341" d="M54.029 36.692c-1.187.832-2.414 1.256-2.726.944-.313-.313-1.441.542-2.508 1.898C47.728 40.89 46.237 42 45.483 42c-2.021 0-14.844 14.952-21.245 24.771-10.961 16.815-17.57 36.233-19.027 55.906-1.391 18.77 1.32 38.826 7.207 53.314l2.486 6.118-1.948 3.196C7.521 194.217 14.382 206 25.007 206c3.174 0 4.17.758 9.682 7.363 7.081 8.485 19.5 18.778 30.311 25.122 36.196 21.24 81.821 22.555 117.899 3.399l8.237-4.371c1.025-.543 1.864-1.331 1.864-1.75 0-.42.627-.763 1.393-.763s1.663-.704 1.993-1.563c.33-.86.987-1.324 1.461-1.032.473.293 1.407-.668 2.075-2.134.75-1.644 1.481-2.237 1.909-1.545.435.704 1.119.218 1.837-1.301.675-1.432.766-2.657.221-2.993-.507-.314-.62-1.059-.251-1.656.799-1.293-1.286-.203-3.888 2.031-.963.827-1.75 1.178-1.75.78 0-.398-1.307.207-2.904 1.345-1.598 1.137-3.36 2.068-3.917 2.068-.557 0-1.162.337-1.346.75-.701 1.578-16.732 9.255-25.36 12.146-44.164 14.793-93.808 1.487-123.604-33.129l-5.796-6.733 1.714-3.011 1.713-3.01 56.5-.043c31.075-.023 58.975-.241 62-.484 3.025-.242 9.436-.716 14.246-1.053 4.811-.337 9.002-1.025 9.314-1.53 1.622-2.624-7.231-3.058-76.505-3.75L38.61 188.5l-1.927-3.302-1.928-3.301 22.623-39.414C69.82 120.805 80 102.603 80 102.034c0-.569.415-1.034.922-1.034.508 0 1.443-1.575 2.078-3.5.635-1.925 1.645-3.5 2.244-3.5.599 0 .801-.288.449-.64-.669-.669 2.304-6.36 3.323-6.36.321 0 .666-1.125.767-2.5.484-6.599.155-8.413-1.418-7.81-.716.275-1.203.851-1.083 1.281.12.43-1.123 2.3-2.762 4.155-1.64 1.856-2.874 3.599-2.742 3.874.131.275-.403 1.249-1.188 2.165-.784.917-1.163 1.929-.841 2.25.321.322.059.585-.582.585-.642 0-1.167.583-1.167 1.297 0 .713-.739 2.207-1.643 3.321-.903 1.113-12.07 19.98-24.814 41.925-21.888 37.692-23.352 39.938-26.439 40.57-3.139.642-3.348.484-5.26-3.972-6.448-15.025-9.247-39.814-6.507-57.641 2.851-18.553 10.873-38.364 20.905-51.63 5.87-7.76 24.02-26.826 24.977-26.235 1.459.902.789-.184-1.125-1.823-1.711-1.465-2.127-1.477-4.065-.12m33.79 65.657c-.693.742-1.994 1.157-2.89.922-2.589-.677-5.205 2.618-4.475 5.637.866 3.582.838 3.889-.907 10.06-.865 3.058-1.547 9.353-1.547 14.281 0 14.492 4.742 25.493 15.278 35.448 6.912 6.53 12.939 9.941 21.334 12.073 3.802.965 7.868 2.71 9.034 3.876 2.477 2.477 6.865 2.136 8.356-.651.57-1.064 2.667-2.018 5.302-2.413 2.398-.36 5.961-1.512 7.918-2.561 1.957-1.049 3.72-1.753 3.918-1.565.198.188.918-.264 1.6-1.004.781-.848.873-1.573.25-1.958-.544-.337-.99-.109-.99.506s-.45.84-1 .5c-.55-.34-1-.066-1 .608 0 .674-.296.929-.658.567-.362-.362-1.149-.26-1.75.225-.601.486-3.738 1.426-6.972 2.09-7.576 1.554-8.377.481-4.779-6.4 1.462-2.797 2.999-5.238 3.415-5.423.878-.392-.024-2.167-1.1-2.167-.399 0-2.06 2.473-3.691 5.497-2.097 3.886-3.551 5.486-4.965 5.46-1.564-.028-5.975-6.978-20.25-31.906C97.213 126.522 89 111.691 89 111.093c0-.598 1.463-1.727 3.25-2.509 3.241-1.417 3.243-1.421.559-1.502-3.321-.101-4.235-1.418-2.82-4.061 1.249-2.335-.198-2.783-2.17-.672m-4.872 13.291c-3.685 9.693-3.694 23.741-.021 33.479 3.012 7.984 9.353 16.354 16.219 21.409 9.331 6.869 22.835 11.094 23.608 7.385.443-2.126-35.35-64.324-37.254-64.736-.882-.19-1.927.818-2.552 2.463M109 141.544c0 .666.675 1.771 1.5 2.456.975.81 1.5.866 1.5.163 0-.661 3.207-1.213 8.25-1.419l8.25-.337-8.25-.203c-4.537-.112-8.25-.579-8.25-1.037 0-.459-.675-.834-1.5-.834s-1.5.545-1.5 1.211m30.298 17.087c.347.348-.028 1.573-.833 2.723-1.67 2.383-1.868 3.646-.573 3.646.49 0 1.174-1.125 1.519-2.5s1.095-2.5 1.667-2.5c.572 0 .762-.45.422-1s-1.116-1-1.726-1c-.609 0-.823.284-.476.631" fill="#222" fill-rule="evenodd"/></svg>