<svg xmlns="http://www.w3.org/2000/svg" width="1240" height="1240"><path d="M619 145.738c-20.015 2.114-36.586 13.853-43.473 30.796-1.232 3.032-2.439 5.712-2.683 5.956-.244.243-4.246.898-8.894 1.455-26.728 3.202-57.143 10.361-85.45 20.114-50.286 17.325-97.036 43.832-139 78.811-11.344 9.456-45.133 43.233-53.034 53.017-31.795 39.367-53.276 74.825-69.434 114.613-2.904 7.15-5.65 13.9-6.102 15-2.576 6.26-9.333 28.395-12.433 40.724-7.756 30.844-9.226 38.867-11.962 65.276-.285 2.75-.99 9.5-1.568 15-2.746 26.165-.084 75.901 5.675 106 1.875 9.799 7.21 33.9 8.412 38 6.891 23.499 16.347 50.574 20.404 58.42 1.531 2.959 1.484 3.139-2.002 7.705-7.217 9.456-10.464 19.041-10.444 30.835.023 13.447 5.019 25.449 14.577 35.014 10.716 10.723 22.774 15.146 38.983 14.298l9.171-.48 5.379 7.075c20.603 27.101 54.32 60.551 81.276 80.633 2.584 1.925 5.914 4.45 7.4 5.612 1.486 1.161 8.102 5.715 14.702 10.119 43.669 29.139 89.206 49.069 139.5 61.054 65.382 15.582 123.648 16.831 187.5 4.019 21.744-4.362 35.606-8.104 56.5-15.249 22.963-7.852 33.272-12.134 53-22.012 31.432-15.738 55.499-31.487 87.113-57.005 8.808-7.11 44.632-42.7 50.942-50.61 2.445-3.065 7.685-9.63 11.644-14.588l7.199-9.016 10.372.461c16.758.745 29.032-4.008 39.645-15.353 7.008-7.492 10.49-14.242 12.772-24.758 1.433-6.608 1.522-9.035.568-15.581-1.338-9.181-4.838-17.571-10.26-24.599l-3.936-5.102 3.058-7.446c4.84-11.783 11.614-30.427 13.903-38.262 2.163-7.407 7.945-29.025 8.474-31.684.164-.825 1.437-7.125 2.829-14 2.516-12.426 3.009-15.707 6.385-42.5 2.439-19.361 2.469-61.487.056-81-4.006-32.399-5.572-41.512-10.876-63.262-20.691-84.85-67.063-162.647-130.888-219.586-20.113-17.944-27.026-23.418-46.5-36.82-29.726-20.458-60.415-36.477-94-49.064-15.234-5.709-42.904-14.115-53.506-16.255-.828-.167-6.003-1.222-11.5-2.344-8.469-1.729-23.146-4.145-34.994-5.76-2.642-.36-3.395-1.288-6.314-7.781-5.672-12.617-16.006-22.256-28.612-26.686-5.96-2.095-15.416-3.643-19.574-3.204m-55.5 66.864c-25.273 4.336-45.946 9.044-64 14.574-71.041 21.762-138.082 65.533-185.856 121.343-27.369 31.972-38.893 49.048-56.678 83.981-47.483 93.264-57.085 198.749-27.353 300.5 2.413 8.256 6.736 21.443 8.359 25.5.441 1.1 2.353 5.825 4.25 10.5l3.448 8.5h21.607l5.497-9.5c3.023-5.225 11.574-20.075 19.004-33 7.429-12.925 16.661-28.9 20.515-35.5 3.855-6.6 12.041-20.775 18.191-31.5 11.932-20.805 15.893-27.659 33.239-57.5 6.075-10.45 11.942-20.604 13.039-22.564 1.837-3.281 9.074-15.808 23.073-39.936 3.032-5.225 10.31-17.825 16.173-28a14685.048 14685.048 0 0118.498-32c4.31-7.425 12.978-22.5 19.263-33.5 6.284-11 12.893-22.475 14.685-25.5 5.365-9.055 13.747-23.515 23.764-41 8.832-15.415 18.314-31.819 30.057-52 2.721-4.675 6.085-10.525 7.477-13 2.405-4.278 6.079-10.622 23.453-40.5a9945.89 9945.89 0 0019.215-33.267l11.655-20.268-2.613-3.426c-1.438-1.885-3.817-5.783-5.288-8.663-1.471-2.879-3.124-5.328-3.674-5.441-.55-.113-4.6.412-9 1.167m103.543 4.034c-1.128 2.55-3.544 6.714-5.368 9.253l-3.317 4.617 8.899 15.497a5559.11 5559.11 0 0111.728 20.497c1.556 2.75 6.527 11.3 11.046 19 4.52 7.7 9.577 16.475 11.237 19.5 1.661 3.025 3.355 5.95 3.764 6.5.409.55 6.816 11.575 14.238 24.5a16219.491 16219.491 0 0022.612 39.25c22.51 38.883 28.28 48.875 42.876 74.25 8.542 14.85 16.407 28.575 17.478 30.5 1.07 1.925 3.204 5.525 4.741 8 2.339 3.766 18.196 31.156 24.025 41.5 2.126 3.772 11.541 20.049 18.799 32.5 6.97 11.958 15.692 27.135 18.963 33 1.38 2.475 6.191 10.8 10.691 18.5 9.822 16.809 9.821 16.807 24.302 42 6.323 11 17.306 30.016 24.406 42.257a12864.877 12864.877 0 0121.664 37.5 9075.452 9075.452 0 0016.635 28.817l7.879 13.573 10.814-.048 10.814-.047 3.623-9.026c4.765-11.873 8.617-22.971 11.81-34.026 1.43-4.95 3.004-10.35 3.499-12 .495-1.65 1.645-6.375 2.555-10.5.91-4.125 2.067-9.3 2.57-11.5 5.189-22.699 8.984-58.412 8.952-84.259-.024-20.004-3.651-58.828-6.855-73.388a993.358 993.358 0 01-2.197-10.353c-11.56-55.983-37.15-112.882-71.283-158.5-19.372-25.89-48.831-56.536-72.143-75.049-58.533-46.484-119.27-73.139-195.615-85.85-11.062-1.841-11.515-1.726-13.842 3.535m-61.463 32.653c-1.586 2.866-5.25 9.261-8.144 14.211-7.188 12.296-36.295 62.705-49.947 86.5-6.153 10.725-14.343 24.9-18.199 31.5-3.856 6.6-12.178 21-18.493 32-6.315 11-14.104 24.5-17.309 30a4695.8 4695.8 0 00-11.002 19c-2.846 4.95-6.595 11.382-8.33 14.294-1.736 2.912-3.156 5.51-3.156 5.775 0 .264-1.721 3.281-3.825 6.706-2.104 3.424-6.918 11.625-10.698 18.225A5262.92 5262.92 0 01444.67 528c-2.713 4.675-10.891 18.85-18.173 31.5-7.282 12.65-14.711 25.475-16.508 28.5-1.797 3.025-7.755 13.375-13.24 23-11.58 20.321-15.134 26.476-23.96 41.5-3.554 6.05-10.198 17.525-14.764 25.5-10.598 18.512-14.558 25.374-21.063 36.5a6170.486 6170.486 0 00-14.771 25.5c-5.23 9.075-12.889 22.35-17.021 29.5-4.132 7.15-8.629 15.034-9.993 17.519l-2.48 4.519 4.519 6.601c2.486 3.63 5.312 8.676 6.28 11.213l1.762 4.612 315.793.002 315.793.002 3.99-8.234c2.194-4.529 5.101-9.275 6.459-10.547l2.47-2.313-4.712-8.187c-2.592-4.503-9.133-15.837-14.537-25.187-5.404-9.35-10.71-18.575-11.791-20.5-1.081-1.925-6.807-11.825-12.724-22-17.381-29.891-43.454-74.972-55.81-96.5-6.314-11-13.889-24.163-16.834-29.25-15.623-26.988-35.267-61.1-38.152-66.25-1.386-2.475-3.5-6.075-4.697-8-1.196-1.925-5.255-8.9-9.019-15.5-3.764-6.6-14.934-25.95-24.822-43s-18.738-32.35-19.666-34c-3.348-5.953-21.425-37.252-28.01-48.5-3.704-6.325-11.895-20.5-18.204-31.5-6.308-11-14.092-24.5-17.297-30-8.236-14.136-16.184-27.917-20.473-35.5-2.022-3.575-6.311-11-9.531-16.5-3.22-5.5-6.751-11.609-7.847-13.575l-1.994-3.575-10.071.075c-5.54.041-11.206-.245-12.591-.636-2.263-.639-2.812-.182-5.401 4.5M601 437.036c-33.848 4.155-67.018 18.339-93.538 39.998-7.582 6.192-20.8 19.763-26.462 27.17-3.42 4.474-3.625 4.577-9 4.533-16.357-.134-26.355 17.619-17.375 30.853l2.455 3.616-3.516 9.887C445.877 574.707 443 591.739 443 615.619c.001 30.425 5.531 54.339 18.644 80.614 23.828 47.744 69.351 83.18 120.939 94.142 6.554 1.393 13.492 2.795 15.417 3.115 2.896.482 3.845 1.308 5.5 4.789 2.668 5.613 8.873 9.858 15.313 10.477 8.785.844 16.332-3.199 20.228-10.836 1.603-3.142 2.626-3.937 5.706-4.433 21.279-3.429 36.803-8.176 54.253-16.588 29.515-14.229 52.717-34.384 71.139-61.797 20.086-29.889 29.888-62.648 29.843-99.73-.028-22.728-4.315-46.692-11.613-64.922l-2.567-6.412 2.599-5.216c4.37-8.768 3.042-17.66-3.674-24.599-3.64-3.761-11.573-6.53-16.212-5.66-2.789.523-3.395.128-6.505-4.243-5.66-7.953-25.863-27.359-36.01-34.588-20.046-14.283-50.328-27.042-74-31.179-11.233-1.964-40.314-2.828-51-1.517m8 10.626c-12.864.894-29.111 4.308-43 9.034-25.967 8.838-55.734 29.588-73.373 51.149l-5.756 7.035 2.315 4.052 2.314 4.053 129.648.007 129.649.008 2.491-4.218 2.49-4.217-6.139-7.435c-13.416-16.246-32.288-31.113-52.688-41.507-27.586-14.054-57.187-20.099-87.951-17.961m-120.063 91.017l-2.562 4.651 18.152 31.585c9.983 17.372 28.653 49.81 41.489 72.085 19.725 34.231 57.148 99.237 67.014 116.405 2.808 4.888 2.838 4.906 8.307 5.07l5.488.164 16.991-29.57c9.346-16.263 28.786-50.044 43.201-75.069 74.336-129.05 69.385-120.129 67.941-122.408-.729-1.151-1.951-3.329-2.715-4.842l-1.389-2.75-129.677.014-129.677.015-2.563 4.65m128.493.286c-1.139.461-2.837 2.007-3.773 3.436-1.005 1.534-2.633 2.599-3.97 2.599-3.909 0-13.292 2.816-20.096 6.031-13.833 6.536-25.813 18.477-33.075 32.969-5.799 11.572-6.981 17.012-6.953 32 .022 12.109.308 14.314 2.776 21.405 1.913 5.497 2.433 8.223 1.706 8.95-.575.575-1.045 2.53-1.045 4.345 0 3.976 2.975 7.3 6.534 7.3 1.829 0 4.227 1.809 8.613 6.498a72.131 72.131 0 0075.842 19.073c10.418-3.525 17.383-7.995 26.986-17.321 5.664-5.5 9.266-8.25 10.806-8.25 2.748 0 7.225-4.167 7.204-6.705-.008-.987-.592-2.92-1.299-4.295-1.11-2.162-.945-3.447 1.223-9.5 2.229-6.223 2.512-8.61 2.547-21.5.038-13.767-.119-14.943-3.093-23.261-4.177-11.684-8.45-18.583-16.863-27.232-10.351-10.642-24.236-18.145-37.165-20.084-3.551-.533-5.535-1.553-7.906-4.067-3.194-3.387-5.214-3.923-8.999-2.391m-152.426 15.753c-3.117 8.331-6.684 21.028-8.72 31.034-1.39 6.832-1.771 13.456-1.739 30.248.044 24.039 1.371 32.8 8.029 53 18.305 55.545 66.159 98.434 123.75 110.911 12.64 2.739 15.456 2.712 16.698-.161.535-1.237 1.488-2.964 2.118-3.837.93-1.29-.318-4.099-6.661-15-4.293-7.377-17.121-29.613-28.506-49.413A71847.66 71847.66 0 00530.53 643a34856.025 34856.025 0 01-36.377-63.25L476.52 549h-9.376l-2.14 5.718M601 550.889c-30.062 9.738-49.243 37.115-47.722 68.111.311 6.327 1.26 11.838 2.844 16.5 3.746 11.027 4.307 10.601 18.457-14 6.644-11.55 18.43-32.01 26.193-45.467 10.554-18.296 13.845-24.79 13.048-25.75-1.454-1.752-6.238-1.526-12.82.606m26.33-.307c-.695 1.813-1.546.227 21.673 40.418 9.691 16.775 20.251 35.154 23.466 40.842 3.215 5.688 6.485 10.587 7.266 10.887 2.435.934 4.172-1.98 6.376-10.694 2.905-11.489 2.32-27.161-1.413-37.87-6.913-19.83-22.484-35.491-42.068-42.308-9.251-3.221-14.389-3.649-15.3-1.275m121.938 28.168A44527.004 44527.004 0 01711.761 644c-11.248 19.525-30.81 53.5-43.471 75.5-12.661 22-25.082 43.484-27.602 47.742l-4.581 7.742 2.518 3.845 2.517 3.846 5.679-.864c61.306-9.321 113.706-53.684 133.583-113.092 6.291-18.805 8.064-30.515 8.056-53.219-.009-24.652-1.859-35.759-9.618-57.75l-3.087-8.75h-9.43l-17.057 29.75M613.299 562.7c-11.056 19.275-42.06 73.073-44.58 77.355-2.479 4.213-2.565 4.72-1.143 6.75l1.537 2.195h51.289c50.358 0 51.322-.037 53.135-2.041 1.796-1.984 1.794-2.127-.063-5.25-1.05-1.765-12.8-22.109-26.111-45.209-20.423-35.442-24.578-42.047-26.609-42.3-2.082-.259-3.09.891-7.455 8.5m-45.632 90.967c-3.143 3.143 9.946 16.084 22.483 22.23 12.385 6.07 18.943 7.421 33.317 6.862 18.756-.73 30.294-5.676 44.001-18.862 6.975-6.709 7.802-7.867 6.628-9.281-1.203-1.45-6.701-1.616-53.552-1.616-28.716 0-52.511.3-52.877.667M302.018 848.463c-1.697 3.555-4.234 7.829-5.639 9.498l-2.554 3.036 5.313 6.751c22.632 28.76 46.856 52.372 78.862 76.872 22.511 17.231 64.006 40.46 91 50.941 51.065 19.827 110.382 30.666 159.5 29.145 35.534-1.1 61.453-4.934 102-15.089 13.496-3.38 41.175-13.265 55.056-19.663 3.819-1.76 8.969-4.075 11.444-5.144 16.138-6.971 47.329-25.974 67.495-41.121 30.593-22.979 55.85-47.749 78.861-77.34l4.783-6.15-3.463-4.536c-1.904-2.495-4.246-6.589-5.205-9.099L937.728 842H305.102l-3.084 6.463" fill="undefined" fill-rule="evenodd"/></svg>