<svg xmlns="http://www.w3.org/2000/svg" width="843" height="813"><path d="M405.813 66.683c.721.289 1.584.253 1.916-.079.332-.332-.258-.568-1.312-.525-1.165.048-1.402.285-.604.604m3.937-.021c.688.278 1.813.278 2.5 0 .688-.277.125-.504-1.25-.504s-1.937.227-1.25.504m-36.937 26.021c.721.289 1.584.253 1.916-.079.332-.332-.258-.568-1.312-.525-1.165.048-1.402.285-.604.604m-13.961 22.354c-47.291 8.332-91.099 28.029-128.852 57.934-5.775 4.574-17.032 14.89-25.016 22.923-23.503 23.649-38.98 45.234-53.494 74.606-4.62 9.35-10.021 21.437-12.003 26.86-6.267 17.154-13.093 44.2-15.053 59.64a544.509 544.509 0 01-1.068 8c-.649 4.377-1.866 25.258-1.866 32 0 6.742 1.217 27.623 1.866 32 .203 1.375.684 4.975 1.068 8 1.154 9.093 4.304 23.743 8.003 37.219 3.546 12.92 10.855 33.473 12.481 35.099.491.491 4.117.893 8.059.893h7.166l62.533-108.356A365573.4 365573.4 0 01294.463 277.5c9.816-16.969 16.089-27.836 60.02-103.969l27.68-47.968-3.332-6.273c-3.889-7.324-3.282-7.194-19.979-4.253m81.242 2.27c-1.147 2.369-2.931 5.214-3.964 6.323-1.855 1.992-1.355 2.926 39.607 73.944L584.707 386.5c37.116 64.35 68.475 118.537 69.686 120.416l2.203 3.417 7.443-.241c4.095-.133 7.564-.362 7.71-.508.794-.793 8.496-22.401 10.715-30.055 3.565-12.303 8.212-32.804 9.073-40.029.394-3.3.886-6.9 1.094-8 1-5.292 2.352-25.12 2.352-34.5 0-9.593-1.376-29.494-2.392-34.598-.23-1.154-.707-4.529-1.062-7.5-.354-2.971-.827-6.077-1.05-6.902-.224-.825-.665-3.075-.98-5-.316-1.925-2.339-10.318-4.497-18.652-12.029-46.449-34.646-87.321-67.705-122.348-26.477-28.054-48.14-44.272-81.297-60.862-19.189-9.601-30.997-14.214-50-19.536-11.584-3.244-37.731-8.602-41.977-8.602-1.184 0-2.591 1.542-3.929 4.307m-85.215 95.579c-24.302 42.138-47.188 81.789-50.858 88.114-9.204 15.861-15.717 27.143-73.034 126.5-27.603 47.85-50.855 88.137-51.671 89.526-1.396 2.379-1.274 2.836 2.111 7.865 1.976 2.937 3.86 6.404 4.187 7.706l.594 2.367 23.146.268c12.73.147 112.774.153 222.32.013l199.174-.255 1.128-3.416c.62-1.879 2.443-5.233 4.051-7.453l2.925-4.037-4.309-7.292c-2.37-4.011-43.388-75.017-91.151-157.792a2524670.64 2524670.64 0 00-106.431-184.436l-19.588-33.936-9.205-.178-9.205-.177-44.184 76.613M206.872 165.75c-1.243 1.586-1.208 1.621.378.378 1.666-1.307 2.195-2.128 1.372-2.128-.207 0-.995.787-1.75 1.75M614.5 171c.995 1.1 2.035 2 2.31 2 .275 0-.315-.9-1.31-2-.995-1.1-2.035-2-2.31-2-.275 0 .315.9 1.31 2m-423.021 9.25l-8.979 9.25 9.25-8.979c5.088-4.939 9.25-9.101 9.25-9.25 0-.726-1.181.388-9.521 8.979M634 190.5c1.292 1.375 2.574 2.5 2.849 2.5.275 0-.557-1.125-1.849-2.5-1.292-1.375-2.574-2.5-2.849-2.5-.275 0 .557 1.125 1.849 2.5m-458.128 6.25c-1.243 1.586-1.208 1.621.378.378 1.666-1.307 2.195-2.128 1.372-2.128-.207 0-.995.787-1.75 1.75m217.414 74.278c-30.636 3.868-61.39 20.493-80.224 43.367-4.846 5.884-5.828 6.605-9 6.607-11.164.004-18.236 11.296-13.166 21.022l2.146 4.118-2.605 7.179c-6.263 17.26-8.855 40.362-6.529 58.179 3.793 29.047 17.886 56.97 38.442 76.167 17.927 16.741 41.644 28.816 64.024 32.596 6.98 1.179 7.86 1.592 9.644 4.526a14.501 14.501 0 0024.964 0c1.786-2.937 2.661-3.346 9.686-4.533 25.305-4.274 49.361-17.252 68.339-36.87 23.13-23.91 34.998-53.509 34.99-87.267-.004-15.078-1.927-27.154-6.438-40.432l-3.334-9.812 2.026-4.795c4.339-10.271-2.262-20.08-13.513-20.08-2.813 0-3.911-.765-7.103-4.951-4.695-6.156-14.03-14.942-23.062-21.704-13.629-10.204-32.89-18.587-50.419-21.944-9.705-1.858-29.487-2.557-38.868-1.373m-2.016 8.593c-26.266 4.054-49.847 16.553-68.316 36.21l-8.768 9.332 1.657 2.912 1.657 2.912h182l1.638-2.879c1.637-2.878 1.635-2.883-3.632-8.922-19.221-22.04-44.191-35.63-72.989-39.725-12.274-1.745-21.181-1.703-33.247.16m-284.191 57.962c.048 1.165.285 1.402.604.605.289-.722.253-1.585-.079-1.917-.332-.332-.568.258-.525 1.312m209.137 4.544c-1.641 2.592-1.848 3.7-.994 5.323 2.973 5.65 26.185 45.185 27.038 46.05.541.55.397-.125-.32-1.5-.718-1.375-1.217-3.85-1.109-5.5.198-3.037 2.677-11.552 4.29-14.736.483-.955.879-2.418.879-3.25 0-.833.441-1.514.981-1.514.539 0 1.263-1.125 1.608-2.5.345-1.375 1.029-2.5 1.519-2.5.491 0 .892-.575.892-1.277 0-.703 1.35-2.755 3-4.562 1.65-1.806 3-3.502 3-3.768 0-.631 4.762-5.393 5.393-5.393.266 0 1.962-1.35 3.768-3 2.989-2.73 3.91-3 10.229-3 3.819 0 6.756-.168 6.527-.374-.23-.206-14.865-.689-32.523-1.073l-32.105-.699-2.073 3.273M449.5 340c-10.45.312-15.798.664-11.886.783 6.316.193 7.495.552 10.5 3.201 1.863 1.641 3.689 2.991 4.06 3 1.539.036 11.675 13.455 14.546 19.256 3.689 7.453 4.622 10.082 6.777 19.085 1.515 6.327 1.514 7.009-.011 9.337-.905 1.381-1.437 2.72-1.182 2.975.255.255 7.291-11.278 15.635-25.63l15.171-26.093-2.137-3.457-2.136-3.457-15.169.217c-8.342.119-23.718.471-34.168.783m259.579 1.583c.048 1.165.285 1.402.604.605.289-.722.253-1.585-.079-1.917-.332-.332-.568.258-.525 1.312m1 5c.048 1.165.285 1.402.604.605.289-.722.253-1.585-.079-1.917-.332-.332-.568.258-.525 1.312M105.158 349c0 1.375.227 1.938.504 1.25.278-.687.278-1.812 0-2.5-.277-.687-.504-.125-.504 1.25m191.854 10.62c-15.521 48.455.94 100.488 41.497 131.168 13.141 9.94 36.397 19.821 51.228 21.764 4.469.585 4.864.449 6.402-2.214l1.64-2.838-20.461-35c-11.254-19.25-21.36-36.731-22.459-38.847-1.099-2.116-2.228-3.617-2.509-3.337-.28.281.134 1.562.922 2.847 3.378 5.513 6.778 11.837 6.365 11.837-.879 0-12.119-16.137-13.234-19a800.327 800.327 0 00-3.278-8.297c-1.929-4.796-1.203-4.412 1.98 1.047 3.161 5.423 5.086 7.372 2.469 2.5-.812-1.512-10.197-18.05-20.855-36.75l-19.379-34-3.605-.306-3.605-.307-3.118 9.733m193.023 25.844c-11.863 20.829-19.894 35.955-19.462 36.654.44.713.311.928-.323.536-1.337-.826-7.567 10.024-6.628 11.543.405.656.234.832-.417.43-1.368-.846-3.558 2.992-2.597 4.548.386.624.263.863-.273.532-.792-.489-11.552 17.435-39.496 65.793-1.654 2.862-1.649 3.112.104 5.43 1.826 2.416 1.879 2.422 9.197 1.12 15.467-2.751 33.601-10.433 46.86-19.849 8.43-5.986 21.257-18.885 27.381-27.534 10.12-14.292 17.033-31.1 20.224-49.167 3.164-17.915.857-42.499-5.61-59.784-2.011-5.374-2.337-5.716-5.451-5.716-3.307 0-3.34.049-23.509 35.464m221.044-31.881c.048 1.165.285 1.402.604.605.289-.722.253-1.585-.079-1.917-.332-.332-.568.258-.525 1.312m-607 3c.048 1.165.285 1.402.604.605.289-.722.253-1.585-.079-1.917-.332-.332-.568.258-.525 1.312M712.158 361c0 1.375.227 1.938.504 1.25.278-.687.278-1.812 0-2.5-.277-.687-.504-.125-.504 1.25m-608.963 3.5c.02 1.65.244 2.204.498 1.231.254-.973.237-2.323-.037-3-.274-.677-.481.119-.461 1.769m610 7c.02 1.65.244 2.204.498 1.231.254-.973.237-2.323-.037-3-.274-.677-.481.119-.461 1.769M102.232 376c0 1.925.206 2.712.457 1.75.252-.962.252-2.538 0-3.5-.251-.962-.457-.175-.457 1.75M344 397c.589 1.1 1.295 2 1.57 2 .275 0 .019-.9-.57-2s-1.295-2-1.57-2c-.275 0-.019.9.57 2m125.5 5c-.853 1.65-1.326 3-1.051 3 .275 0 1.198-1.35 2.051-3 .853-1.65 1.326-3 1.051-3-.275 0-1.198 1.35-2.051 3m-367.248 16.5c.011 2.2.216 2.982.455 1.738.239-1.244.23-3.044-.02-4s-.446.062-.435 2.262m610.98 4.5c0 1.925.206 2.712.457 1.75.252-.962.252-2.538 0-3.5-.251-.962-.457-.175-.457 1.75M350 427c.589 1.1 1.295 2 1.57 2 .275 0 .019-.9-.57-2s-1.295-2-1.57-2c-.275 0-.019.9.57 2m-246.842 3c0 1.375.227 1.938.504 1.25.278-.687.278-1.812 0-2.5-.277-.687-.504-.125-.504 1.25m609 3c0 1.375.227 1.938.504 1.25.278-.687.278-1.812 0-2.5-.277-.687-.504-.125-.504 1.25m-608 5c0 1.375.227 1.938.504 1.25.278-.687.278-1.812 0-2.5-.277-.687-.504-.125-.504 1.25m606.921 2.583c.048 1.165.285 1.402.604.605.289-.722.253-1.585-.079-1.917-.332-.332-.568.258-.525 1.312m-606 5c.048 1.165.285 1.402.604.605.289-.722.253-1.585-.079-1.917-.332-.332-.568.258-.525 1.312m605 2c.048 1.165.285 1.402.604.605.289-.722.253-1.585-.079-1.917-.332-.332-.568.258-.525 1.312M375 451c.589 1.1 1.295 2 1.57 2 .275 0 .019-.9-.57-2s-1.295-2-1.57-2c-.275 0-.019.9.57 2m64.469 3.06c-1.746 3.376-7.352 6.275-16.469 8.517-6.285 1.545-25.271 1.873-29.601.511-1.594-.501-5.083-1.513-7.752-2.248-3.542-.976-5.237-2.081-6.276-4.089-.782-1.513-1.647-2.751-1.922-2.751-.699 0 .705 2.581 14.908 27.417l12.534 21.916h7.524l11.377-19.916C440.323 454.474 442.233 451 441.612 451c-.308 0-1.273 1.377-2.143 3.06M126.1 521.295c-1.265 2.107-1.243 2.128.479.479.991-.95 1.587-1.942 1.324-2.205-.263-.263-1.074.514-1.803 1.726m562.9-.917c0 .207.788.995 1.75 1.75 1.586 1.243 1.621 1.208.378-.378-1.307-1.666-2.128-2.195-2.128-1.372M699.232 545c0 1.925.206 2.712.457 1.75.252-.962.252-2.538 0-3.5-.251-.962-.457-.175-.457 1.75M185.46 557.25c-.371 1.237-2.025 4.39-3.675 7.006l-3.001 4.756 5.459 6.744c40.264 49.746 93.866 84.1 154.757 99.185 10.105 2.503 15.088 3.51 27.5 5.554 25.804 4.251 66.598 3.822 89.5-.941a342.77 342.77 0 015.5-1.082c55.483-10.381 107.643-37.853 148.043-77.972 7.2-7.15 16.584-17.371 20.853-22.713l7.763-9.713-2.576-3.376c-1.416-1.857-3.071-4.798-3.677-6.537L630.804 555H186.135l-.675 2.25M126 568.378c0 .207.787.995 1.75 1.75 1.586 1.243 1.621 1.208.378-.378-1.307-1.666-2.128-2.195-2.128-1.372m562.405 1.872l-1.905 2.25 2.25-1.905c2.114-1.79 2.705-2.595 1.905-2.595-.19 0-1.202 1.013-2.25 2.25m-46.533 24.5c-1.243 1.586-1.208 1.621.378.378 1.666-1.307 2.195-2.128 1.372-2.128-.207 0-.995.788-1.75 1.75M174 595.378c0 .207.787.995 1.75 1.75 1.586 1.243 1.621 1.208.378-.378-1.307-1.666-2.128-2.195-2.128-1.372m460.924 7.372l-2.424 2.75 2.75-2.424c2.57-2.266 3.209-3.076 2.424-3.076-.179 0-1.416 1.237-2.75 2.75M184.5 607c2.148 2.2 4.131 4 4.406 4 .275 0-1.258-1.8-3.406-4s-4.131-4-4.406-4c-.275 0 1.258 1.8 3.406 4m13 13c2.148 2.2 4.131 4 4.406 4 .275 0-1.258-1.8-3.406-4s-4.131-4-4.406-4c-.275 0 1.258 1.8 3.406 4m415.424 4.75l-2.424 2.75 2.75-2.424c2.57-2.266 3.209-3.076 2.424-3.076-.179 0-1.416 1.237-2.75 2.75M207 628.378c0 .207.787.995 1.75 1.75 1.586 1.243 1.621 1.208.378-.378-1.307-1.666-2.128-2.195-2.128-1.372m397.872 3.372c-1.243 1.586-1.208 1.621.378.378 1.666-1.307 2.195-2.128 1.372-2.128-.207 0-.995.788-1.75 1.75M213 633.378c0 .207.787.995 1.75 1.75 1.586 1.243 1.621 1.208.378-.378-1.307-1.666-2.128-2.195-2.128-1.372m133.813 64.305c.721.289 1.584.253 1.916-.079.332-.332-.258-.568-1.312-.525-1.165.048-1.402.285-.604.604m116 1c.721.289 1.584.253 1.916-.079.332-.332-.258-.568-1.312-.525-1.165.048-1.402.285-.604.604m-105 1c.721.289 1.584.253 1.916-.079.332-.332-.258-.568-1.312-.525-1.165.048-1.402.285-.604.604m99 0c.721.289 1.584.253 1.916-.079.332-.332-.258-.568-1.312-.525-1.165.048-1.402.285-.604.604m-92 1c.721.289 1.584.253 1.916-.079.332-.332-.258-.568-1.312-.525-1.165.048-1.402.285-.604.604m85 0c.721.289 1.584.253 1.916-.079.332-.332-.258-.568-1.312-.525-1.165.048-1.402.285-.604.604m-78.063.979c.688.278 1.813.278 2.5 0 .688-.277.125-.504-1.25-.504s-1.937.227-1.25.504m70 0c.688.278 1.813.278 2.5 0 .688-.277.125-.504-1.25-.504s-1.937.227-1.25.504m-59.5 1.027c.962.252 2.538.252 3.5 0 .962-.251.175-.457-1.75-.457s-2.712.206-1.75.457m48.512.018c1.244.239 3.044.23 4-.02s-.062-.446-2.262-.435c-2.2.011-2.982.216-1.738.455" fill="undefined" fill-rule="evenodd"/></svg>